<svg xmlns="http://www.w3.org/2000/svg" width="300" height="300"><path d="M230 44v14c44 0 8 59 28 88-18 25 17 92-43 93v14c85-5 30-100 60-100v-14c-30 2 23-95-45-95M85 47c-90 3-26 99-60 100v14c31-3-24 95 45 97v-14c-44 0-8-63-28-90 22-36-22-93 43-93Zm64 22-18 14c-46-8-76 16-66 53l14-4c-8-30 18-38 40-36-76 90-31 197 50 121 46 8 76-16 66-53l-14 4c8 30-18 38-40 36 32-38 52-98 31-130l-11 7c16 25-1 83-36 121q-29-8-54-27l-9 11q24 18 50 27c-68 55-81-46-17-115q29 8 54 27l9-11q-23-18-51-27l9-6z"/><path fill="var(--color-primary)" d="M150 120a30 30 0 0 0-30 30 30 30 0 0 0 30 30 30 30 0 0 0 30-30 30 30 0 0 0-30-30m6 8q13 4 16 16l-7 2q-3-8-11-11z"/><path fill="var(--color-accent)" d="M182 36a20 20 0 0 0-20 20 20 20 0 0 0 20 20 20 20 0 0 0 20-20 20 20 0 0 0-20-20m4 7q7 2 9 10l-4 1q-1-6-7-7z"/></svg>