<?xml version="1.0" encoding="UTF-8" standalone="no"?>
<!-- Created with Inkscape (http://www.inkscape.org/) -->

<svg
   width="250"
   height="250"
   viewBox="0 0 250 250"
   version="1.1"
   id="svg1"
   inkscape:version="1.4.2 (ebf0e940d0, 2025-05-08)"
   sodipodi:docname="logo-original-2.svg"
   inkscape:export-filename="icon.svg"
   inkscape:export-xdpi="96"
   inkscape:export-ydpi="96"
   xmlns:inkscape="http://www.inkscape.org/namespaces/inkscape"
   xmlns:sodipodi="http://sodipodi.sourceforge.net/DTD/sodipodi-0.dtd"
   xmlns:xlink="http://www.w3.org/1999/xlink"
   xmlns="http://www.w3.org/2000/svg"
   xmlns:svg="http://www.w3.org/2000/svg">
  <sodipodi:namedview
     id="namedview1"
     pagecolor="#ffffff"
     bordercolor="#000000"
     borderopacity="0.25"
     inkscape:showpageshadow="2"
     inkscape:pageopacity="0.0"
     inkscape:pagecheckerboard="0"
     inkscape:deskcolor="#d1d1d1"
     inkscape:document-units="px"
     showgrid="true"
     inkscape:zoom="4.3081652"
     inkscape:cx="126.27185"
     inkscape:cy="132.42296"
     inkscape:window-width="2560"
     inkscape:window-height="1403"
     inkscape:window-x="0"
     inkscape:window-y="0"
     inkscape:window-maximized="1"
     inkscape:current-layer="layer1">
    <inkscape:grid
       id="grid1"
       units="px"
       originx="0"
       originy="0"
       spacingx="1"
       spacingy="1"
       empcolor="#0099e5"
       empopacity="0.30196078"
       color="#0099e5"
       opacity="0.14901961"
       empspacing="5"
       enabled="true"
       visible="true" />
  </sodipodi:namedview>
  <defs
     id="defs1">
    <inkscape:path-effect
       effect="bspline"
       id="path-effect15"
       is_visible="true"
       lpeversion="1.3"
       weight="33.333333"
       steps="2"
       helper_size="0"
       apply_no_weight="true"
       apply_with_weight="true"
       only_selected="false"
       uniform="false" />
    <inkscape:path-effect
       effect="bspline"
       id="path-effect12"
       is_visible="true"
       lpeversion="1.3"
       weight="33.333333"
       steps="2"
       helper_size="0"
       apply_no_weight="true"
       apply_with_weight="true"
       only_selected="false"
       uniform="false" />
    <inkscape:path-effect
       effect="bspline"
       id="path-effect10"
       is_visible="true"
       lpeversion="1.3"
       weight="33.333333"
       steps="2"
       helper_size="0"
       apply_no_weight="true"
       apply_with_weight="true"
       only_selected="false"
       uniform="false" />
    <inkscape:path-effect
       effect="bspline"
       id="path-effect56"
       is_visible="true"
       lpeversion="1.3"
       weight="33.333333"
       steps="2"
       helper_size="0"
       apply_no_weight="true"
       apply_with_weight="true"
       only_selected="false"
       uniform="false" />
    <inkscape:path-effect
       effect="bspline"
       id="path-effect54"
       is_visible="true"
       lpeversion="1.3"
       weight="33.333333"
       steps="2"
       helper_size="0"
       apply_no_weight="true"
       apply_with_weight="true"
       only_selected="false"
       uniform="false" />
    <inkscape:path-effect
       effect="bspline"
       id="path-effect40"
       is_visible="true"
       lpeversion="1.3"
       weight="33.333333"
       steps="2"
       helper_size="0"
       apply_no_weight="true"
       apply_with_weight="true"
       only_selected="false"
       uniform="false" />
    <inkscape:path-effect
       effect="bspline"
       id="path-effect38"
       is_visible="true"
       lpeversion="1.3"
       weight="33.333333"
       steps="2"
       helper_size="0"
       apply_no_weight="true"
       apply_with_weight="true"
       only_selected="false"
       uniform="false" />
    <inkscape:path-effect
       effect="bspline"
       id="path-effect33"
       is_visible="true"
       lpeversion="1.3"
       weight="33.333333"
       steps="2"
       helper_size="0"
       apply_no_weight="true"
       apply_with_weight="true"
       only_selected="false"
       uniform="false" />
    <inkscape:path-effect
       effect="bspline"
       id="path-effect31"
       is_visible="true"
       lpeversion="1.3"
       weight="33.333333"
       steps="2"
       helper_size="0"
       apply_no_weight="true"
       apply_with_weight="true"
       only_selected="false"
       uniform="false" />
    <inkscape:path-effect
       effect="bspline"
       id="path-effect19"
       is_visible="true"
       lpeversion="1.3"
       weight="33.333333"
       steps="2"
       helper_size="0"
       apply_no_weight="true"
       apply_with_weight="true"
       only_selected="false"
       uniform="false" />
    <inkscape:path-effect
       effect="bspline"
       id="path-effect17"
       is_visible="true"
       lpeversion="1.3"
       weight="33.333333"
       steps="2"
       helper_size="0"
       apply_no_weight="true"
       apply_with_weight="true"
       only_selected="false"
       uniform="false" />
    <inkscape:path-effect
       effect="bspline"
       id="path-effect11"
       is_visible="true"
       lpeversion="1.3"
       weight="33.333333"
       steps="2"
       helper_size="0"
       apply_no_weight="true"
       apply_with_weight="true"
       only_selected="false"
       uniform="false" />
    <inkscape:path-effect
       effect="bspline"
       id="path-effect9"
       is_visible="true"
       lpeversion="1.3"
       weight="33.333333"
       steps="2"
       helper_size="0"
       apply_no_weight="true"
       apply_with_weight="true"
       only_selected="false"
       uniform="false" />
    <inkscape:path-effect
       effect="spiro"
       id="path-effect8"
       is_visible="true"
       lpeversion="1" />
    <inkscape:path-effect
       effect="spiro"
       id="path-effect7"
       is_visible="true"
       lpeversion="1" />
    <inkscape:path-effect
       effect="bspline"
       id="path-effect16"
       is_visible="true"
       lpeversion="1.3"
       weight="33.333333"
       steps="2"
       helper_size="0"
       apply_no_weight="true"
       apply_with_weight="true"
       only_selected="false"
       uniform="false" />
    <inkscape:path-effect
       effect="bspline"
       id="path-effect13"
       is_visible="true"
       lpeversion="1.3"
       weight="33.333333"
       steps="2"
       helper_size="0"
       apply_no_weight="true"
       apply_with_weight="true"
       only_selected="false"
       uniform="false" />
    <inkscape:path-effect
       effect="bspline"
       id="path-effect6"
       is_visible="true"
       lpeversion="1.3"
       weight="33.333333"
       steps="2"
       helper_size="0"
       apply_no_weight="true"
       apply_with_weight="true"
       only_selected="false"
       uniform="false" />
    <inkscape:path-effect
       effect="bspline"
       id="path-effect5"
       is_visible="true"
       lpeversion="1.3"
       weight="33.333333"
       steps="2"
       helper_size="0"
       apply_no_weight="true"
       apply_with_weight="true"
       only_selected="false"
       uniform="false" />
    <inkscape:path-effect
       effect="bspline"
       id="path-effect4"
       is_visible="true"
       lpeversion="1.3"
       weight="33.333333"
       steps="2"
       helper_size="0"
       apply_no_weight="true"
       apply_with_weight="true"
       only_selected="false"
       uniform="false" />
  </defs>
  <g
     inkscape:label="Layer 1"
     inkscape:groupmode="layer"
     id="layer1"
     style="display:inline">
    <g
       id="g23"
       inkscape:label="original"
       style="display:none"
       transform="translate(-25.143296,-23.343065)">
      <path
         style="display:inline;fill:none;stroke:#000000;stroke-width:14;stroke-linecap:butt;stroke-dasharray:none"
         id="path2"
         transform="rotate(-60)"
         sodipodi:type="arc"
         sodipodi:cx="-54.96067"
         sodipodi:cy="204.77509"
         sodipodi:rx="94.282028"
         sodipodi:ry="49.759491"
         sodipodi:start="0.26179939"
         sodipodi:end="5.4977871"
         sodipodi:open="true"
         sodipodi:arc-type="arc"
         d="m 36.108775,217.65379 a 94.282028,49.759491 0 0 1 -91.069445,36.88079 94.282028,49.759491 0 0 1 -91.06945,-36.88079 94.282028,49.759491 0 0 1 43.92843,-55.97169 94.282028,49.759491 0 0 1 113.808478,7.90771"
         inkscape:label="primary-orbit" />
      <g
         id="g11"
         transform="translate(51.97108,-153.69655)"
         style="display:inline"
         inkscape:label="satelite">
        <circle
           style="fill:#000000;stroke:none;stroke-width:5;stroke-dasharray:none"
           id="path3"
           cx="130.00015"
           cy="210.00005"
           r="19.999849" />
        <path
           style="fill:none;stroke:#ffffff;stroke-width:5;stroke-dasharray:none"
           id="circle10"
           sodipodi:type="arc"
           sodipodi:cx="130.00015"
           sodipodi:cy="210.00005"
           sodipodi:rx="11.702242"
           sodipodi:ry="11.702242"
           sodipodi:start="4.9741884"
           sodipodi:end="6.0213859"
           sodipodi:open="true"
           sodipodi:arc-type="arc"
           d="m 133.02892,198.69655 a 11.702242,11.702242 0 0 1 8.27473,8.27473" />
      </g>
      <g
         id="g21"
         inkscape:label="secondary-orbit"
         transform="translate(-50.00015,-50.00005)">
        <path
           style="display:inline;fill:none;stroke:#000000;stroke-width:14;stroke-linecap:butt;stroke-dasharray:none"
           id="path14"
           transform="rotate(30)"
           sodipodi:type="arc"
           sodipodi:cx="273.1619"
           sodipodi:cy="73.212616"
           sodipodi:rx="87.408562"
           sodipodi:ry="49.759491"
           sodipodi:start="5.7595865"
           sodipodi:end="1.8325957"
           sodipodi:open="true"
           sodipodi:arc-type="arc"
           d="m 348.85993,48.332869 a 87.408562,49.759491 0 0 1 -6.35216,55.171401 87.408562,49.759491 0 0 1 -91.96887,17.77232" />
        <use
           x="0"
           y="0"
           xlink:href="#path14"
           id="use15"
           transform="rotate(180,199.95883,199.98493)" />
      </g>
      <g
         id="g22"
         inkscape:label="braces">
        <g
           id="g19">
          <path
             style="fill:none;stroke:#000000;stroke-width:14"
             d="m 191.76167,39.419516 c 0,6.666666 0,13.333332 15.83334,15.14329 15.83333,1.809957 47.49935,-1.236733 63.333,2.930018 15.83366,4.166752 15.83366,15.546588 15.83366,26.926692"
             id="path6"
             inkscape:path-effect="#path-effect11"
             inkscape:original-d="m 191.76167,39.419516 c 0,6.666666 0,13.333332 0,20 31.66667,-3.046753 63.33269,-6.093443 95,-9.140258 0,11.380318 0,22.760154 0,34.140258"
             sodipodi:nodetypes="cscc"
             transform="matrix(0,1,1,0,-14.419516,-36.76167)" />
          <path
             style="fill:none;stroke:#000000;stroke-width:14"
             d="m 191.76167,39.419516 c 0,6.666666 0,13.333332 16.66862,15.14329 16.66861,1.809957 50.00515,-1.236733 66.67411,5.430069 16.66895,6.666801 16.66895,23.046525 16.66895,39.426635"
             id="path15"
             inkscape:path-effect="#path-effect17"
             inkscape:original-d="m 191.76167,39.419516 c 0,6.666666 0,13.333332 0,20 33.33723,-3.046753 66.67377,-6.093443 100.01168,-9.140258 0,16.380418 0,32.760142 0,49.140252"
             sodipodi:nodetypes="cscc"
             transform="rotate(-90,166.17692,180.59643)" />
        </g>
        <use
           x="0"
           y="0"
           xlink:href="#g19"
           id="use19"
           transform="rotate(180,150.07164,150.41667)" />
      </g>
      <g
         id="g58"
         inkscape:label="center"
         style="display:inline"
         transform="translate(-50,-50)">
        <circle
           style="fill:#000000;stroke:none;stroke-width:4;stroke-dasharray:12, 8"
           id="circle57"
           cx="200"
           cy="200"
           r="30" />
        <path
           style="fill:none;stroke:#ffffff;stroke-width:7;stroke-dasharray:none"
           id="path58"
           sodipodi:type="arc"
           sodipodi:cx="200"
           sodipodi:cy="200"
           sodipodi:rx="18.87224"
           sodipodi:ry="18.87224"
           sodipodi:start="4.9741884"
           sodipodi:end="6.0213859"
           sodipodi:open="true"
           sodipodi:arc-type="arc"
           d="m 204.8845,181.77082 a 18.87224,18.87224 0 0 1 13.34468,13.34468" />
      </g>
    </g>
    <g
       id="g30"
       inkscape:label="optimized"
       style="display:inline"
       transform="translate(0,-1)">
      <path
         id="path23"
         style="display:inline;fill:#363636;fill-opacity:1;stroke-width:5"
         d="m 205.14258,19.828124 v 14 c 43.69156,0 8.34049,59.218056 27.91015,88.089846 -17.69237,24.72896 16.89374,92.27473 -42.91015,92.91015 v 14 c 84.85742,-4.55394 30.23452,-99.76927 60,-100.01171 v -13.98829 c -29.78139,1.76071 22.70464,-94.999996 -45,-94.999996 z M 60,22.99414 C -30.406469,25.547431 33.8794,121.58685 0,123.00586 v 13.98828 c 30.87424,-2.66833 -24.046329,95.03143 44.857422,96.65625 v -14 c -43.543909,0 -8.330362,-63.01985 -27.791016,-89.71094 C 38.6073,94.36934 -5.154803,36.99414 60,36.99414 Z m 63.99414,21.730469 c -6.3321,3.98385 -12.47742,8.809144 -18.32812,14.302734 C 59.757536,51.369863 30.211494,75.22691 40.214844,111.53516 l 13.496094,-3.71875 C 45.601327,78.38176 72.026861,70.33409 93.58203,71.80664 c -76.002434,90.03264 -30.607114,197.61371 50.42774,121.08203 45.62905,7.71064 75.82099,-15.71452 65.69531,-52.4668 l -13.49805,3.71875 c 8.11185,29.44277 -18.32801,37.56557 -40.18555,35.99024 31.72047,-37.6966 52.17949,-98.49183 31.39063,-130.402345 l -11.73047,7.642578 C 191.53946,81.71254 175.02891,140.06925 139.5957,177.49805 121.42358,173.10932 101.92935,163.81204 85.70703,150.82812 l -8.74805,10.92969 c 15.28989,12.23761 32.84981,21.61016 50.4004,27.10352 -68.370695,55.09143 -81.241567,-46.27739 -17.10743,-114.41797 18.1914,4.3815 37.71405,13.68705 53.95703,26.6875 l 8.74805,-10.92969 C 157.63336,77.93651 140.02878,68.548846 122.43945,63.060546 c 2.97502,-2.40868 5.98746,-4.581655 9.01172,-6.484375 z" />
      <path
         d="m 125,95.99414 a 30,30 0 0 0 -30,30 30,30 0 0 0 30,30 30,30 0 0 0 30,-30 30,30 0 0 0 -30,-30 z m 5.79102,8.39062 c 7.71506,2.06726 13.75112,8.1033 15.81835,15.81836 l -6.76171,1.8125 c -1.42288,-5.31025 -5.55889,-9.44626 -10.86914,-10.86914 z"
         style="display:inline;fill:#2f7cab;fill-opacity:1;stroke-width:5"
         id="path29" />
      <path
         d="m 156.9707,12.296874 a 19.999849,19.999849 0 0 0 -20,20 19.999849,19.999849 0 0 0 20,20 19.999849,19.999849 0 0 0 20,-20 19.999849,19.999849 0 0 0 -20,-20 z m 3.54688,6.765625 c 4.72544,1.26618 8.42327,4.96207 9.68945,9.6875 l -3.86523,1.035157 c -0.89796,-3.35126 -3.50812,-5.961415 -6.85938,-6.859375 z"
         style="display:inline;fill:#feae39;fill-opacity:1;stroke-width:5"
         id="path28" />
    </g>
  </g>
</svg>
