<svg width="711.464" height="499.2" viewBox="0 0 188.242 132.08" xmlns="http://www.w3.org/2000/svg"><g transform="translate(41.204 13.123) scale(.2067)"><path d="M256.275 205.17c-27.949 0-50.603 22.662-50.603 50.594 0 27.936 22.668 50.603 50.603 50.603 27.941 0 50.603-22.653 50.603-50.603 0-27.927-22.658-50.594-50.603-50.594z"/><path d="M256.3 44.455c-23.637-13.458-47.304-24.196-70.389-31.787-12.686-4.176-26.381 3.097-29.91 16.16-3.267 12.092 3.984 24.548 15.873 28.49 12.775 4.235 25.923 9.697 39.242 16.23-51.77 37.201-99.895 85.332-137.087 137.098-26.255-54.097-40.047-116.341-9.633-146.755 9.138-9.138 9.138-23.954 0-33.092-9.137-9.138-23.954-9.138-33.092 0C-24.875 86.976 3.838 183.16 44.987 255.753c-89.167 156.468-33.874 255.815 69.306 255.815 104.938 0 241.248-95.3 324.215-210.633 3.97 8.16 7.614 16.397 10.858 24.687 41.986 107.294-.223 165.513-110.716 127.914-8.444-2.874-11.708-5.262-16.035-2.047a562.826 562.826 0 01-30.088 20.893c-5.189 3.354-4.543 11.149 1.101 13.666 191.832 85.529 276.638-53.087 174.417-231.041C582.887 52.447 458.828-70.927 256.3 44.455zm-.289 367.683c-83.936-54.836-134.94-126.304-134.94-126.304-3.363-4.393-10.12-4.037-12.909.743-6.075 10.404-11.503 20.782-16.238 31.061a7.76 7.76 0 001.017 8.101s51.659 64.982 117.243 112.016C-47.801 561.764 24.253 251.004 256.165 99.344c61.828 40.399 118.463 97.768 157.218 157.399-41.15 64.355-99.381 118.504-157.372 155.395zm183.015-201.691c-34.891-47.873-83.797-98.263-137.625-136.962 132.553-64.707 207.182-10.98 137.625 136.962z"/><circle cx="110.736" cy="14.831" r="31.446"/></g><path d="M21.167 19.614c0-7.196 3.386-11.288 10.724-11.288h3.81V0H30.48c-12.7 0-19.332 6.209-19.332 18.768V54.61c0 5.08-2.258 7.197-6.35 7.197H0v8.466h4.798c4.092 0 6.35 2.117 6.35 7.197v35.842c0 12.559 6.632 18.768 19.332 18.768h5.221v-8.326h-3.81c-7.338 0-10.724-4.092-10.724-11.289V77.611c0-7.056-2.117-10.019-6.633-11.571 4.516-1.552 6.633-4.516 6.633-11.571zm162.277 42.193c-3.951 0-6.35-2.117-6.35-7.197V18.768C177.094 6.208 170.462 0 157.903 0h-5.362v8.326h3.81c7.337 0 10.724 4.092 10.724 11.288V54.47c0 7.055 2.117 10.019 6.632 11.57-4.515 1.553-6.632 4.516-6.632 11.572v34.854c0 7.197-3.387 11.29-10.724 11.29h-3.81v8.325h5.362c12.559 0 19.19-6.209 19.19-18.768V77.47c0-5.08 2.4-7.197 6.35-7.197h4.799v-8.466z"/><style>@media (prefers-color-scheme:dark){circle,path{fill:#fff}}</style></svg>
