<svg xmlns="http://www.w3.org/2000/svg" width="1024" height="768"><path fill="#666" d="M58 28a33 33 0 0 0-32 32v647a33 33 0 0 0 32 33h909a33 33 0 0 0 32-33V101q0-15-12-25a32 32 0 0 0-20-8H331a10 10 0 0 1-11-10v-1a29 29 0 0 0-5-17 29 29 0 0 0-24-12zm-3 52h912a20 20 0 0 1 21 21v606a20 20 0 0 1-21 21H58a20 20 0 0 1-20-21V98a18 18 0 0 1 17-18"/><path fill="#f2f2f2" d="M56 80a18 18 0 0 0-18 18v609a20 20 0 0 0 20 21h909a20 20 0 0 0 20-21V101a20 20 0 0 0-20-20Z"/><path fill="#999" d="M291 28a29 29 0 0 1 24 12 29 29 0 0 1 5 17v1a10 10 0 0 0 10 10h637a32 32 0 0 1 32 33V60a33 33 0 0 0-32-32z"/><path fill="none" stroke="#b3b3b3" stroke-linecap="round" stroke-width="28" d="M53 54h143"/><circle cx="292" cy="55" r="11" fill="#b3b3b3"/><g fill="#666"><circle cx="965" cy="48" r="11"/><circle cx="928" cy="48" r="11"/><circle cx="892" cy="48" r="11"/></g><g stroke-linecap="round" stroke-width="12" transform="matrix(.982 0 0 .98132 46 -68)"><rect width="291" height="180" x="50" y="204" fill="#999" stroke="#999" rx="11" ry="12"/><rect width="266" height="180" x="75" y="204" fill="#aef" stroke="#999" rx="11" ry="12"/><circle cx="266" cy="258" r="24" fill="#ffe680" stroke="#fc0"/><path fill="#87de87" stroke="#5fd35f" d="M209 314a171 51 0 0 0-134 19v44q1 5 10 6h245q10-1 11-6v-45a171 51 0 0 0-132-18Z"/></g><g stroke-linecap="round" transform="translate(0 -10)"><rect width="180" height="242" x="422" y="162" fill="#999" stroke="#999" stroke-width="12" rx="10" ry="12"/><rect width="180" height="219" x="422" y="162" fill="#d7eef4" stroke="#999" stroke-width="12" rx="10" ry="12"/><g fill="#decd87" stroke="#c8ab37" stroke-width="18" transform="matrix(.65058 0 0 .6598 179 123)"><path d="M489 230h47v77h-47z"/><ellipse cx="513" cy="191" rx="52" ry="74"/></g><path fill="#aca793" stroke="#918a6f" stroke-width="12" d="M512 318a104 50 0 0 0-90 25v31q0 5 7 6h166q7-1 7-6v-31a104 50 0 0 0-90-25z"/></g><g stroke-linecap="round" stroke-width="12" transform="matrix(1.0092 0 0 1.00343 -61 -44)"><rect width="266" height="198" x="380" y="518" fill="#999" stroke="#999" rx="10" ry="12"/><rect width="266" height="174" x="380" y="518" fill="#aef" stroke="#999" rx="10" ry="12"/><circle cx="454" cy="578" r="24" fill="#ffe680" stroke="#fc0"/><path fill="#87de87" stroke="#5fd35f" d="M514 635a171 42 0 0 0-134 16v36q1 5 10 5h245q10-1 11-5v-37a171 42 0 0 0-132-15Z"/></g><g stroke-linecap="round" stroke-width="13" transform="matrix(.95552 0 0 .9547 35 2)"><rect width="288" height="197" x="643" y="131" fill="#999" stroke="#999" rx="11" ry="12"/><rect width="288" height="170" x="643" y="131" fill="#aef" stroke="#999" rx="11" ry="12"/><circle cx="752" cy="195" r="25" fill="#ffe680" stroke="#fc0"/><path fill="#87de87" stroke="#5fd35f" d="M788 254a185 35 0 0 0-145 13v30q1 4 11 4h265q11 0 12-4v-30a185 35 0 0 0-143-13Z"/></g><g stroke-linecap="round" stroke-width="18" transform="matrix(.65826 0 0 .65842 194 77)"><rect width="266" height="299" x="685" y="425" fill="#999" stroke="#999" rx="16" ry="18"/><rect width="266" height="267" x="685" y="425" fill="#e2e3db" stroke="#999" rx="16" ry="18"/><g fill="#decd87" stroke="#c8ab37" transform="translate(0 19)"><path d="M794 538h47v78h-47z"/><ellipse cx="818" cy="499" rx="52" ry="74"/></g><path fill="#c8b7b7" stroke="#ac9393" d="M818 616a153 61 0 0 0-133 31v37q1 7 10 8h245q10-1 11-8v-37a153 61 0 0 0-133-31Z"/></g><g stroke-linecap="round" transform="matrix(.97138 0 0 .97125 -59 -41)"><rect width="185" height="290" x="156" y="425" fill="#999" stroke="#999" stroke-width="12" rx="11" ry="12"/><rect width="185" height="267" x="156" y="425" fill="#eef4d7" stroke="#999" stroke-width="12" rx="11" ry="12"/><g fill="#decd87" stroke="#c8ab37" stroke-width="14" transform="translate(70 94)scale(.85755)"><path d="M184 538h47v78h-47z"/><ellipse cx="208" cy="499" rx="52" ry="74"/></g><path fill="#b7c8be" stroke="#93ac9d" stroke-width="12" d="M248 607a107 69 0 0 0-92 34v42q1 8 7 9h170q7-1 8-9v-42a107 69 0 0 0-93-34z"/></g><path fill="none" stroke="maroon" stroke-dasharray="6,18" stroke-linecap="round" stroke-linejoin="round" stroke-width="6" d="M183 102v593M73 102v593m659-593v593M293 102v593m110-593v593m109-593v593m110-593v593m220-593v593m110-593v593M74 102h882M74 456h882M74 220h882M74 338h882M74 574h882M74 692h882" paint-order="stroke markers fill"/></svg>