<svg xmlns="http://www.w3.org/2000/svg" width="974" height="712"><g transform="translate(-26 -28)"><path fill="#666" d="M58 28a33 33 0 0 0-32 32v647a33 33 0 0 0 32 33h909a33 33 0 0 0 32-33V101q0-15-12-25a32 32 0 0 0-20-8H331a10 10 0 0 1-11-10v-1a29 29 0 0 0-5-17 29 29 0 0 0-24-12zm-3 52h912a20 20 0 0 1 21 21v606a20 20 0 0 1-21 21H58a20 20 0 0 1-20-21V98a18 18 0 0 1 17-18"/><path fill="#f2f2f2" d="M56 80a18 18 0 0 0-18 18v609a20 20 0 0 0 20 21h909a20 20 0 0 0 20-21V101a20 20 0 0 0-20-20Z"/><path fill="#999" d="M291 28a29 29 0 0 1 24 12 29 29 0 0 1 5 17v1a10 10 0 0 0 10 10h637a32 32 0 0 1 32 33V60a33 33 0 0 0-32-32z"/><path fill="none" stroke="#b3b3b3" stroke-linecap="round" stroke-width="28" d="M53 54h143"/><circle cx="292" cy="55" r="11" fill="#b3b3b3"/><g fill="#666"><circle cx="965" cy="48" r="11"/><circle cx="928" cy="48" r="11"/><circle cx="892" cy="48" r="11"/></g></g><g stroke-linecap="round"><g stroke-width="11" transform="matrix(1.08426 0 0 1.08601 -14 -127)"><rect width="266" height="180" x="75" y="204" fill="#aef" stroke="#999" rx="10" ry="11"/><circle cx="266" cy="258" r="24" fill="#ffe680" stroke="#fc0"/><path fill="#87de87" stroke="#5fd35f" d="M209 314a171 51 0 0 0-134 19v44q1 5 10 6h245q10-1 11-6v-45a171 51 0 0 0-132-18Z"/></g><g transform="matrix(.81831 0 0 .81998 86 38)"><rect width="220" height="267" x="380" y="116" fill="#d7eef4" stroke="#999" stroke-width="15" rx="13" ry="14"/><g fill="#decd87" stroke="#c8ab37" stroke-width="18" transform="matrix(.79503 0 0 .80466 82 70)"><path d="M489 230h47v77h-47z"/><ellipse cx="513" cy="191" rx="52" ry="74"/></g><path fill="#aca793" stroke="#918a6f" stroke-width="15" d="M489 307a127 61 0 0 0-109 31v37q0 8 8 8h203q7 0 8-8v-37a127 61 0 0 0-110-31Z"/></g><g stroke-width="11" transform="matrix(1.06765 0 0 1.06243 -117 -97)"><rect width="266" height="174" x="380" y="518" fill="#aef" stroke="#999" rx="10" ry="11"/><circle cx="454" cy="578" r="24" fill="#ffe680" stroke="#fc0"/><path fill="#87de87" stroke="#5fd35f" d="M514 635a171 42 0 0 0-134 16v36q1 5 10 5h245q10-1 11-5v-37a171 42 0 0 0-132-15Z"/></g><g stroke-width="11" transform="matrix(1.08254 0 0 1.08502 -124 -142)"><rect width="266" height="157" x="685" y="226" fill="#aef" stroke="#999" rx="10" ry="11"/><circle cx="786" cy="285" r="23" fill="#ffe680" stroke="#fc0"/><path fill="#87de87" stroke="#5fd35f" d="M819 339a171 32 0 0 0-134 13v27q1 4 10 4h245q10 0 11-4v-28a171 32 0 0 0-132-12Z"/></g><g stroke-width="18" transform="matrix(.67545 0 0 .6755 154 50)"><rect width="266" height="267" x="685" y="425" fill="#e2e3db" stroke="#999" rx="15" ry="17"/><g fill="#decd87" stroke="#c8ab37" transform="translate(0 19)"><path d="M794 538h47v78h-47z"/><ellipse cx="818" cy="499" rx="52" ry="74"/></g><path fill="#c8b7b7" stroke="#ac9393" d="M818 616a153 61 0 0 0-133 31v37q1 7 10 8h245q10-1 11-8v-37a153 61 0 0 0-133-31Z"/></g><g transform="matrix(.93326 0 0 .9345 -74 -32)"><rect width="185" height="267" x="156" y="425" fill="#eef4d7" stroke="#999" stroke-width="13" rx="11" ry="13"/><g fill="#decd87" stroke="#c8ab37" stroke-width="15" transform="translate(70 94)scale(.85755)"><path d="M184 538h47v78h-47z"/><ellipse cx="208" cy="499" rx="52" ry="74"/></g><path fill="#b7c8be" stroke="#93ac9d" stroke-width="13" d="M248 607a107 69 0 0 0-92 34v42q1 8 7 9h170q7-1 8-9v-42a107 69 0 0 0-93-34z"/></g></g><path fill="none" stroke="maroon" stroke-dasharray="6,18" stroke-linecap="round" stroke-linejoin="round" stroke-width="6" d="M157 74v593M47 74v593M706 74v593M267 74v593M377 74v593M486 74v593M596 74v593M816 74v593M926 74v593M48 74h882M48 428h882M48 192h882M48 310h882M48 546h882M48 664h882" paint-order="stroke markers fill"/></svg>