<svg xmlns="http://www.w3.org/2000/svg" xmlns:xlink="http://www.w3.org/1999/xlink" width="400" height="300"><g id="a" stroke-width="4" transform="translate(-9 24)"><rect width="70" height="100" x="34" y="36" fill="#ccc" stroke="#999" rx="5" ry="5"/><g fill="#decd87" stroke="#a0892c"><rect width="14" height="16" x="62" y="92" rx="0" ry="0"/><ellipse cx="69" cy="76" rx="15" ry="22"/></g><path fill="#9dac93" stroke="#5d6c53" d="M69 106c-10 0-19 1-35 7v18q0 5 5 5h60q5 0 5-5v-18c-16-6-25-7-35-7z"/></g><g id="b" stroke-width="4" transform="translate(-17 6)"><rect width="110" height="65" x="127" y="54" fill="#afdde9" stroke="#5fbcd3" rx="5" ry="5"/><circle cx="207" cy="79" r="10" fill="#ffe680" stroke="#fc0"/><path fill="#aade87" stroke="#71c837" d="M182 99c-18 0-41 4-55 10v10q0 5 5 5h100q5 0 5-5v-10c-14-6-37-10-55-10z"/></g><use xlink:href="#a" transform="translate(125 85)"/><use xlink:href="#b" transform="translate(-85 115)"/><use xlink:href="#a" transform="translate(210)"/><use xlink:href="#b" transform="translate(210)"/><use xlink:href="#b" transform="translate(125 115)"/><use xlink:href="#a" transform="translate(335 85)"/><use xlink:href="#b" transform="translate(-210)"/><use xlink:href="#a" transform="translate(-85 85)"/><use xlink:href="#b" transform="translate(-85 -85)"/><use xlink:href="#a" transform="translate(-85 -115)"/><use xlink:href="#a" transform="translate(125 -115)"/><use xlink:href="#b" transform="translate(125 -85)"/><use xlink:href="#a" transform="translate(335 -115)"/><use xlink:href="#a" transform="translate(0 200)"/><use xlink:href="#b" transform="translate(0 200)"/><use xlink:href="#b" transform="translate(-210 200)"/><use xlink:href="#a" transform="translate(210 200)"/><use xlink:href="#b" transform="translate(210 200)"/></svg>