<svg xmlns="http://www.w3.org/2000/svg" width="974" height="712"><g transform="translate(-26 -28)"><path fill="#666" d="M58 28a33 33 0 0 0-32 32v647a33 33 0 0 0 32 33h909a33 33 0 0 0 32-33V101q0-15-12-25a32 32 0 0 0-20-8H331a10 10 0 0 1-11-10v-1a29 29 0 0 0-5-17 29 29 0 0 0-24-12zm-3 52h912a20 20 0 0 1 21 21v606a20 20 0 0 1-21 21H58a20 20 0 0 1-20-21V98a18 18 0 0 1 17-18"/><path fill="#f2f2f2" d="M56 80a18 18 0 0 0-18 18v609a20 20 0 0 0 20 21h909a20 20 0 0 0 20-21V101a20 20 0 0 0-20-20Z"/><path fill="#999" d="M291 28a29 29 0 0 1 24 12 29 29 0 0 1 5 17v1a10 10 0 0 0 10 10h637a32 32 0 0 1 32 33V60a33 33 0 0 0-32-32z"/><path fill="none" stroke="#b3b3b3" stroke-linecap="round" stroke-width="28" d="M53 54h143"/><circle cx="292" cy="55" r="11" fill="#b3b3b3"/><g fill="#666"><circle cx="965" cy="48" r="11"/><circle cx="928" cy="48" r="11"/><circle cx="892" cy="48" r="11"/></g></g><g stroke-linecap="round" stroke-width="12" transform="translate(-26 -115)"><rect width="266" height="180" x="75" y="204" fill="#aef" stroke="#999" rx="10" ry="12"/><circle cx="266" cy="258" r="24" fill="#ffe680" stroke="#fc0"/><path fill="#87de87" stroke="#5fd35f" d="M209 314a171 51 0 0 0-134 19v44q1 5 10 6h245q10-1 11-6v-45a171 51 0 0 0-132-18Z"/></g><g stroke-linecap="round" transform="matrix(1.21227 0 0 1.21031 -106 -52)"><rect width="220" height="267" x="380" y="116" fill="#d7eef4" stroke="#999" stroke-width="10" rx="9" ry="10"/><g fill="#decd87" stroke="#c8ab37" stroke-width="12" transform="matrix(.79503 0 0 .80466 82 70)"><path d="M489 230h47v77h-47z"/><ellipse cx="513" cy="191" rx="52" ry="74"/></g><path fill="#aca793" stroke="#918a6f" stroke-width="10" d="M489 307a127 61 0 0 0-109 31v37q0 8 8 8h203q7 0 8-8v-37a127 61 0 0 0-110-31Z"/></g><g stroke-linecap="round" stroke-width="12" transform="translate(-26 -64)"><rect width="266" height="174" x="380" y="518" fill="#aef" stroke="#999" rx="10" ry="12"/><circle cx="454" cy="578" r="24" fill="#ffe680" stroke="#fc0"/><path fill="#87de87" stroke="#5fd35f" d="M514 635a171 42 0 0 0-134 16v36q1 5 10 5h245q10-1 11-5v-37a171 42 0 0 0-132-15Z"/></g><g stroke-linecap="round" stroke-width="12" transform="translate(-26 -138)"><rect width="266" height="157" x="685" y="226" fill="#aef" stroke="#999" rx="10" ry="12"/><circle cx="786" cy="285" r="23" fill="#ffe680" stroke="#fc0"/><path fill="#87de87" stroke="#5fd35f" d="M819 339a171 32 0 0 0-134 13v27q1 4 10 4h245q10 0 11-4v-28a171 32 0 0 0-132-12Z"/></g><g stroke-linecap="round" stroke-width="12" transform="translate(-26 -138)"><rect width="266" height="267" x="685" y="425" fill="#e2e3db" stroke="#999" rx="10" ry="12"/><g fill="#decd87" stroke="#c8ab37" transform="translate(0 19)"><path d="M794 538h47v78h-47z"/><ellipse cx="818" cy="499" rx="52" ry="74"/></g><path fill="#c8b7b7" stroke="#ac9393" d="M818 616a153 61 0 0 0-133 31v37q1 7 10 8h245q10-1 11-8v-37a153 61 0 0 0-133-31Z"/></g><g stroke-linecap="round" transform="matrix(1.4371 0 0 1.42893 -175 -300)"><rect width="185" height="267" x="156" y="425" fill="#eef4d7" stroke="#999" stroke-width="8" rx="7" ry="8"/><g fill="#decd87" stroke="#c8ab37" stroke-width="10" transform="translate(70 94)scale(.85755)"><path d="M184 538h47v78h-47z"/><ellipse cx="208" cy="499" rx="52" ry="74"/></g><path fill="#b7c8be" stroke="#93ac9d" stroke-width="8" d="M248 607a107 69 0 0 0-92 34v42q1 8 7 9h170q7-1 8-9v-42a107 69 0 0 0-93-34z"/></g><g stroke-dasharray="12,36" stroke-linecap="round" stroke-linejoin="round" stroke-width="12" font-family="Source Sans 3" font-size="133" font-weight="400" paint-order="stroke markers fill"><text xml:space="preserve" x="173" y="249" style="-inkscape-font-specification:&quot;Source Sans 3, Normal&quot;;font-variant-ligatures:normal;font-variant-caps:normal;font-variant-numeric:normal;font-variant-east-asian:normal;text-align:start" transform="translate(-26 -28)"><tspan x="173" y="249">1</tspan></text><text xml:space="preserve" x="175" y="569" style="-inkscape-font-specification:&quot;Source Sans 3, Normal&quot;;font-variant-ligatures:normal;font-variant-caps:normal;font-variant-numeric:normal;font-variant-east-asian:normal;text-align:start" transform="translate(-26 -28)"><tspan x="175" y="569">2</tspan></text><text xml:space="preserve" x="481" y="320" style="-inkscape-font-specification:&quot;Source Sans 3, Normal&quot;;font-variant-ligatures:normal;font-variant-caps:normal;font-variant-numeric:normal;font-variant-east-asian:normal;text-align:start" transform="translate(-26 -28)"><tspan x="481" y="320">3</tspan></text><text xml:space="preserve" x="480" y="611" style="-inkscape-font-specification:&quot;Source Sans 3, Normal&quot;;font-variant-ligatures:normal;font-variant-caps:normal;font-variant-numeric:normal;font-variant-east-asian:normal;text-align:start" transform="translate(-26 -28)"><tspan x="480" y="611">4</tspan></text><text xml:space="preserve" x="786" y="236" style="-inkscape-font-specification:&quot;Source Sans 3, Normal&quot;;font-variant-ligatures:normal;font-variant-caps:normal;font-variant-numeric:normal;font-variant-east-asian:normal;text-align:start" transform="translate(-26 -28)"><tspan x="786" y="236">5</tspan></text><text xml:space="preserve" x="784" y="491" style="-inkscape-font-specification:&quot;Source Sans 3, Normal&quot;;font-variant-ligatures:normal;font-variant-caps:normal;font-variant-numeric:normal;font-variant-east-asian:normal;text-align:start" transform="translate(-26 -28)"><tspan x="784" y="491">6</tspan></text></g></svg>