<svg xmlns="http://www.w3.org/2000/svg" xmlns:xlink="http://www.w3.org/1999/xlink" width="400" height="300"><g id="a" stroke-width="4" transform="translate(15 -1)"><rect width="100" height="135" x="20" y="11" fill="#ccc" stroke="#999" rx="5" ry="5"/><g fill="#decd87" stroke="#a0892c"><rect width="24" height="25" x="58" y="84" rx="0" ry="0"/><ellipse cx="70" cy="61" rx="23" ry="32"/></g><path fill="#9dac93" stroke="#5d6c53" d="M70 105q-26 0-50 9v27q0 5 5 5h90q5 0 5-5v-27q-24-9-50-9z"/></g><g id="b" stroke-width="4" transform="translate(-103 110)"><rect width="100" height="72" x="138" y="50" fill="#afdde9" stroke="#5fbcd3" rx="5" ry="5"/><circle cx="210" cy="74" r="10" fill="#ffe680" stroke="#fc0"/><path fill="#aade87" stroke="#71c837" d="M188 96q-28 0-50 9v12q0 5 5 5h90q5 0 5-5v-12q-22-9-50-9z"/></g><use xlink:href="#a" transform="translate(115 88)"/><use xlink:href="#a" transform="translate(0 238)"/><use xlink:href="#a" transform="translate(230)"/><use xlink:href="#a" transform="translate(230 238)"/><use xlink:href="#b" id="c" x="0" y="0" transform="matrix(-1 0 0 1 285 -150)"/><use xlink:href="#b" transform="translate(115 88)"/><use xlink:href="#c" transform="translate(115 149)"/><g font-size="24"><text xml:space="preserve" x="41" y="34"><tspan x="41" y="34">1</tspan></text><text xml:space="preserve" x="42" y="184"><tspan x="42" y="184">4</tspan></text><text xml:space="preserve" x="42" y="275"><tspan x="42" y="275">7</tspan></text><text xml:space="preserve" x="155" y="34"><tspan x="155" y="34">2</tspan></text><text xml:space="preserve" x="155" y="125"><tspan x="155" y="125">5</tspan></text><text xml:space="preserve" x="156" y="275"><tspan x="156" y="275">8</tspan></text><text xml:space="preserve" x="270" y="34"><tspan x="270" y="34">3</tspan></text><text xml:space="preserve" x="270" y="184"><tspan x="270" y="184">6</tspan></text><text xml:space="preserve" x="270" y="274"><tspan x="270" y="274">9</tspan></text></g></svg>