<svg xmlns="http://www.w3.org/2000/svg" xmlns:xlink="http://www.w3.org/1999/xlink" width="400" height="300"><g id="a" stroke-width="4" transform="translate(-9 24)"><rect width="60" height="85" x="34" y="36" fill="#ccc" stroke="#999" rx="5" ry="5"/><g fill="#decd87" stroke="#a0892c"><rect width="12" height="16" x="58" y="80" rx="0" ry="0"/><ellipse cx="64" cy="67" rx="13" ry="17"/></g><path fill="#9dac93" stroke="#5d6c53" d="M64 93c-10 0-14 1-30 7v16q0 5 5 5h50q5 0 5-5v-16c-16-6-20-7-30-7Z"/></g><g id="b" stroke-width="4" transform="translate(-22 11)"><rect width="120" height="85" x="122" y="49" fill="#afdde9" stroke="#5fbcd3" rx="5" ry="5"/><circle cx="207" cy="74" r="12" fill="#ffe680" stroke="#fc0"/><path fill="#aade87" stroke="#71c837" d="M182 104c-18 0-46 4-60 10v15q0 5 5 5h110q5 0 5-5v-15c-14-6-42-10-60-10z"/></g><use xlink:href="#a" transform="translate(210)"/><use xlink:href="#b" transform="translate(-210)"/><use xlink:href="#b" transform="translate(210)"/><use xlink:href="#a" transform="translate(50 200)"/><use xlink:href="#b" transform="translate(50 200)"/><use xlink:href="#a" transform="translate(260 200)"/><use xlink:href="#b" transform="translate(-160 200)"/><use xlink:href="#b" transform="translate(260 200)"/><use xlink:href="#a" transform="translate(150 100)"/><use xlink:href="#b" transform="translate(-60 100)"/><use xlink:href="#b" transform="translate(150 100)"/><use xlink:href="#a" transform="translate(360 100)"/><use xlink:href="#a" transform="translate(-60 100)"/><use xlink:href="#a" transform="translate(70 -99)"/><use xlink:href="#b" transform="translate(70 -99)"/><use xlink:href="#a" transform="translate(280 -99)"/><use xlink:href="#b" transform="translate(-140 -99)"/><use xlink:href="#b" transform="translate(280 -99)"/></svg>