<svg xmlns="http://www.w3.org/2000/svg" xmlns:xlink="http://www.w3.org/1999/xlink" width="400" height="300"><g id="d" stroke-width="4" transform="translate(130 9)"><rect width="100" height="100" x="20" y="36" fill="#ccc" stroke="#999" rx="5" ry="5"/><g fill="#decd87" stroke="#a0892c"><rect width="20" height="25" x="60" y="87" rx="0" ry="0"/><ellipse cx="70" cy="66" rx="22" ry="30"/></g><path fill="#9dac93" stroke="#5d6c53" d="M70 105q-26 0-50 9v17q0 5 5 5h90q5 0 5-5v-17q-24-9-50-9z"/></g><g id="e" stroke-width="4" transform="translate(12 124)"><rect width="100" height="100" x="138" y="36" fill="#afdde9" stroke="#5fbcd3" rx="5" ry="5"/><circle cx="208" cy="67" r="12" fill="#ffe680" stroke="#fc0"/><path fill="#aade87" stroke="#71c837" d="M188 96a81 40 0 0 0-50 9v26q0 5 5 5h90q5 0 5-5v-26a81 40 0 0 0-50-9z"/></g><path id="c" stroke="#ff7f2a" stroke-dasharray="12, 8" stroke-width="4" d="M0 37h400"/><path id="a" stroke="#ff7f2a" stroke-dasharray="12, 8" stroke-width="4" d="M27 0v300"/><use xlink:href="#a" transform="translate(115)"/><use xlink:href="#a" id="b" x="0" y="0"/><use xlink:href="#b" transform="translate(230)"/><use xlink:href="#b" transform="translate(345)"/><use xlink:href="#c" transform="translate(0 115)"/><use xlink:href="#c" transform="translate(0 230)"/><use xlink:href="#d" transform="translate(115 115)"/><use xlink:href="#e" id="f" x="0" y="0" transform="matrix(-1 0 0 1 515 -115)"/><use xlink:href="#d" transform="translate(-115 115)"/><use xlink:href="#e" transform="translate(-115 -115)"/><use xlink:href="#e" transform="translate(0 -230)"/><use xlink:href="#d" transform="translate(115 -115)"/><use xlink:href="#d" transform="translate(-115 -115)"/><use xlink:href="#d" transform="translate(0 230)"/><use xlink:href="#e" transform="translate(115 115)"/><use xlink:href="#d" transform="translate(230)"/><use xlink:href="#e" transform="translate(230)"/><use xlink:href="#d" transform="translate(230 230)"/><use xlink:href="#e" transform="translate(230 -230)"/><use xlink:href="#e" transform="translate(-230)"/><use xlink:href="#d" transform="translate(-230)"/><use xlink:href="#e" transform="translate(-230 -230)"/><use xlink:href="#d" transform="translate(-230 230)"/><use xlink:href="#f" transform="translate(-230 230)"/></svg>