<svg xmlns="http://www.w3.org/2000/svg" xmlns:xlink="http://www.w3.org/1999/xlink" width="400" height="300"><g id="a" stroke-width="4" transform="translate(130 9)"><rect width="72" height="100" x="34" y="36" fill="#ccc" stroke="#999" rx="5" ry="5"/><g fill="#decd87" stroke="#a0892c"><rect width="16" height="21" x="62" y="89" rx="0" ry="0"/><ellipse cx="70" cy="73" rx="17" ry="22"/></g><path fill="#9dac93" stroke="#5d6c53" d="M70 105c-17 0-20 3-36 9v17q0 5 5 5h62q5 0 5-5v-17c-16-6-19-9-36-9z"/></g><g id="b" stroke-width="4" transform="translate(12 124)"><rect width="100" height="72" x="138" y="50" fill="#afdde9" stroke="#5fbcd3" rx="5" ry="5"/><circle cx="210" cy="74" r="10" fill="#ffe680" stroke="#fc0"/><path fill="#aade87" stroke="#71c837" d="M188 96q-28 0-50 9v12q0 5 5 5h90q5 0 5-5v-12q-22-9-50-9z"/></g><use xlink:href="#a" transform="translate(230)"/><use xlink:href="#a" transform="translate(0 230)"/><use xlink:href="#a" transform="translate(-230)"/><use xlink:href="#a" transform="translate(-115 -115)"/><use xlink:href="#a" transform="translate(115 -115)"/><use xlink:href="#a" transform="translate(115 115)"/><use xlink:href="#a" transform="translate(-230 230)"/><use xlink:href="#a" transform="translate(230 230)"/><use xlink:href="#b" transform="translate(0 -230)"/><use xlink:href="#b" transform="translate(230)"/><use xlink:href="#b" transform="matrix(-1 0 0 1 515 -115)"/><use xlink:href="#b" transform="translate(115 115)"/><use xlink:href="#b" transform="translate(230 -230)"/><use xlink:href="#b" transform="translate(-115 115)"/><use xlink:href="#b" transform="translate(-115 -115)"/><use xlink:href="#b" transform="translate(-230 -230)"/><use xlink:href="#b" transform="translate(-230)"/><use xlink:href="#a" transform="translate(-115 115)"/></svg>