<svg xmlns="http://www.w3.org/2000/svg" width="974" height="712"><g transform="translate(-26 -28)"><path fill="#666" d="M58 28a33 33 0 0 0-32 32v647a33 33 0 0 0 32 33h909a33 33 0 0 0 32-33V101q0-15-12-25a32 32 0 0 0-20-8H331a10 10 0 0 1-11-10v-1a29 29 0 0 0-5-17 29 29 0 0 0-24-12zm-3 52h912a20 20 0 0 1 21 21v606a20 20 0 0 1-21 21H58a20 20 0 0 1-20-21V98a18 18 0 0 1 17-18"/><path fill="#f2f2f2" d="M56 80a18 18 0 0 0-18 18v609a20 20 0 0 0 20 21h909a20 20 0 0 0 20-21V101a20 20 0 0 0-20-20Z"/><path fill="#999" d="M291 28a29 29 0 0 1 24 12 29 29 0 0 1 5 17v1a10 10 0 0 0 10 10h637a32 32 0 0 1 32 33V60a33 33 0 0 0-32-32z"/><path fill="none" stroke="#b3b3b3" stroke-linecap="round" stroke-width="28" d="M53 54h143"/><circle cx="292" cy="55" r="11" fill="#b3b3b3"/><g fill="#666"><circle cx="965" cy="48" r="11"/><circle cx="928" cy="48" r="11"/><circle cx="892" cy="48" r="11"/></g></g><g stroke-linecap="round" stroke-width="12" transform="translate(-26 -28)"><rect width="266" height="267" x="75" y="116" fill="#aef" stroke="#999" rx="10" ry="12"/><circle cx="287" cy="200" r="30" fill="#ffe680" stroke="#fc0"/><path fill="#87de87" stroke="#5fd35f" d="M209 280a171 76 0 0 0-134 29v65q1 8 10 9h245q10-1 11-9v-66a171 76 0 0 0-132-28Z"/></g><g stroke-linecap="round" stroke-width="12" transform="translate(-26 -28)"><rect width="266" height="267" x="380" y="116" fill="#d7eef4" stroke="#999" rx="10" ry="12"/><path fill="#decd87" stroke="#c8ab37" d="M489 230h47v77h-47z"/><ellipse cx="513" cy="191" fill="#decd87" stroke="#c8ab37" rx="52" ry="74"/><path fill="#aca793" stroke="#918a6f" d="M513 294a153 72 0 0 0-133 36v44q1 8 10 9h245q10-1 11-9v-44a153 72 0 0 0-133-36Z"/></g><g stroke-linecap="round" stroke-width="12" transform="translate(-26 -28)"><rect width="266" height="267" x="380" y="425" fill="#aef" stroke="#999" rx="10" ry="12"/><circle cx="438" cy="509" r="30" fill="#ffe680" stroke="#fc0"/><path fill="#87de87" stroke="#5fd35f" d="M514 604a171 65 0 0 0-134 24v56q1 7 10 8h245q10-1 11-8v-57a171 65 0 0 0-132-23Z"/></g><g stroke-linecap="round" stroke-width="12" transform="translate(-26 -28)"><rect width="266" height="267" x="685" y="116" fill="#aef" stroke="#999" rx="10" ry="12"/><circle cx="775" cy="177" r="30" fill="#ffe680" stroke="#fc0"/><path fill="#87de87" stroke="#5fd35f" d="M819 257a171 93 0 0 0-134 35v79q1 11 10 12h245q10-1 11-12v-80a171 93 0 0 0-132-34Z"/></g><g stroke-linecap="round" stroke-width="12" transform="translate(-26 -28)"><rect width="266" height="267" x="75" y="425" fill="#eef4d7" stroke="#999" rx="10" ry="12"/><path fill="#decd87" stroke="#c8ab37" d="M184 538h47v78h-47z"/><ellipse cx="208" cy="499" fill="#decd87" stroke="#c8ab37" rx="52" ry="74"/><path fill="#b7c8be" stroke="#93ac9d" d="M208 602a153 72 0 0 0-133 37v43q1 9 10 10h245q10-1 11-10v-43a153 72 0 0 0-133-37Z"/></g><g stroke-linecap="round" stroke-width="12" transform="translate(-26 -28)"><rect width="266" height="267" x="685" y="425" fill="#e2e3db" stroke="#999" rx="10" ry="12"/><g fill="#decd87" stroke="#c8ab37" transform="translate(0 19)"><path d="M794 538h47v78h-47z"/><ellipse cx="818" cy="499" rx="52" ry="74"/></g><path fill="#c8b7b7" stroke="#ac9393" d="M818 616a153 61 0 0 0-133 31v37q1 7 10 8h245q10-1 11-8v-37a153 61 0 0 0-133-31Z"/></g><path fill="none" stroke="maroon" stroke-dasharray="12,36" stroke-linecap="round" stroke-linejoin="round" stroke-width="12" d="M39 375h902M334 80v600M639 80v600" paint-order="stroke markers fill"/></svg>