<?xml version="1.0" encoding="UTF-8" standalone="no"?>
<!-- Created with Inkscape (http://www.inkscape.org/) -->

<svg
   width="1024"
   height="768"
   viewBox="0 0 1024 768"
   version="1.1"
   id="svg1"
   inkscape:version="1.4.2 (ebf0e940d0, 2025-05-08)"
   sodipodi:docname="justified.svg"
   inkscape:export-filename="justified.svg"
   inkscape:export-xdpi="96"
   inkscape:export-ydpi="96"
   xmlns:inkscape="http://www.inkscape.org/namespaces/inkscape"
   xmlns:sodipodi="http://sodipodi.sourceforge.net/DTD/sodipodi-0.dtd"
   xmlns="http://www.w3.org/2000/svg"
   xmlns:svg="http://www.w3.org/2000/svg">
  <sodipodi:namedview
     id="namedview1"
     pagecolor="#ffffff"
     bordercolor="#000000"
     borderopacity="0.25"
     inkscape:showpageshadow="2"
     inkscape:pageopacity="0.0"
     inkscape:pagecheckerboard="0"
     inkscape:deskcolor="#d1d1d1"
     inkscape:document-units="px"
     inkscape:zoom="1.0928851"
     inkscape:cx="320.25325"
     inkscape:cy="450.64207"
     inkscape:window-width="2560"
     inkscape:window-height="1403"
     inkscape:window-x="0"
     inkscape:window-y="0"
     inkscape:window-maximized="1"
     inkscape:current-layer="g11" />
  <defs
     id="defs1">
    <inkscape:path-effect
       effect="bspline"
       id="path-effect11"
       is_visible="true"
       lpeversion="1.3"
       weight="33.333333"
       steps="2"
       helper_size="0"
       apply_no_weight="true"
       apply_with_weight="true"
       only_selected="false"
       uniform="false" />
    <inkscape:path-effect
       effect="bspline"
       id="path-effect9"
       is_visible="true"
       lpeversion="1.3"
       weight="33.333333"
       steps="2"
       helper_size="0"
       apply_no_weight="true"
       apply_with_weight="true"
       only_selected="false"
       uniform="false" />
    <inkscape:path-effect
       effect="bspline"
       id="path-effect2"
       is_visible="true"
       lpeversion="1.3"
       weight="33.333333"
       steps="2"
       helper_size="0"
       apply_no_weight="true"
       apply_with_weight="true"
       only_selected="false"
       uniform="false" />
    <inkscape:path-effect
       effect="bspline"
       id="path-effect1"
       is_visible="true"
       lpeversion="1.3"
       weight="33.333333"
       steps="2"
       helper_size="0"
       apply_no_weight="true"
       apply_with_weight="true"
       only_selected="false"
       uniform="false" />
    <inkscape:path-effect
       effect="fillet_chamfer"
       id="path-effect8"
       is_visible="true"
       lpeversion="1"
       nodesatellites_param="F,0,0,1,0,0,0,1 @ F,0,0,1,0,0,0,1 @ F,0,0,1,0,0,0,1 @ F,0,0,1,0,0,0,1 @ F,0,0,1,0,0,0,1 @ F,0,0,1,0,0,0,1 @ F,0,0,1,0,0,0,1 @ F,0,0,1,0,0,0,1 @ F,0,0,1,0,0,0,1 @ F,0,0,1,0,0,0,1 @ F,0,0,1,0,10.172778,0,1 @ F,0,0,1,0,0,0,1 @ F,0,0,1,0,0,0,1 | F,0,0,1,0,17.58734,0,1 @ F,0,0,1,0,0,0,1 @ F,0,0,1,0,0,0,1 @ F,0,0,1,0,0,0,1 @ F,0,0,1,0,0,0,1 @ F,0,0,1,0,0,0,1 @ F,0,0,1,0,0,0,1"
       radius="0"
       unit="px"
       method="auto"
       mode="F"
       chamfer_steps="1"
       flexible="false"
       use_knot_distance="true"
       apply_no_radius="true"
       apply_with_radius="true"
       only_selected="false"
       hide_knots="false" />
    <inkscape:path-effect
       effect="fillet_chamfer"
       id="path-effect6"
       is_visible="true"
       lpeversion="1"
       nodesatellites_param="F,0,0,1,0,0,0,1 @ F,0,0,1,0,0,0,1 @ F,0,0,1,0,0,0,1 @ F,0,0,1,0,0,0,1 @ F,0,0,1,0,0,0,1 @ F,0,0,1,0,0,0,1 @ F,0,0,1,0,0,0,1 @ F,0,0,1,0,0,0,1 @ F,0,0,1,0,0,0,1 @ F,0,0,1,0,0,0,1 @ F,0,0,1,0,10.172778,0,1 @ F,0,0,1,0,0,0,1 @ F,0,0,1,0,0,0,1 | F,0,0,1,0,17.58734,0,1 @ F,0,0,1,0,0,0,1 @ F,0,0,1,0,0,0,1 @ F,0,0,1,0,0,0,1 @ F,0,0,1,0,0,0,1 @ F,0,0,1,0,0,0,1 @ F,0,0,1,0,0,0,1"
       radius="0"
       unit="px"
       method="auto"
       mode="F"
       chamfer_steps="1"
       flexible="false"
       use_knot_distance="true"
       apply_no_radius="true"
       apply_with_radius="true"
       only_selected="false"
       hide_knots="false" />
    <inkscape:path-effect
       effect="fillet_chamfer"
       id="path-effect5"
       is_visible="true"
       lpeversion="1"
       nodesatellites_param="F,0,0,1,0,29.438922,0,1 @ F,0,1,1,0,29.438922,0,1 @ F,0,0,1,0,0,0,1 @ F,0,0,1,0,0,0,1"
       radius="0"
       unit="px"
       method="auto"
       mode="F"
       chamfer_steps="1"
       flexible="false"
       use_knot_distance="true"
       apply_no_radius="true"
       apply_with_radius="true"
       only_selected="false"
       hide_knots="false" />
    <inkscape:path-effect
       effect="fillet_chamfer"
       id="path-effect4"
       is_visible="true"
       lpeversion="1"
       nodesatellites_param="F,0,0,1,0,0,0,1 @ F,0,1,1,0,26.462678,0,1 @ F,0,1,1,0,26.462678,0,1 @ F,0,0,1,0,26.462678,0,1"
       radius="0"
       unit="px"
       method="auto"
       mode="F"
       chamfer_steps="1"
       flexible="false"
       use_knot_distance="true"
       apply_no_radius="true"
       apply_with_radius="true"
       only_selected="false"
       hide_knots="false" />
    <inkscape:path-effect
       effect="fillet_chamfer"
       id="path-effect3"
       is_visible="true"
       lpeversion="1"
       nodesatellites_param="F,0,0,1,0,0,0,1 @ F,0,0,1,0,0,0,1 @ F,0,0,1,0,0,0,1 @ F,0,0,1,0,0,0,1"
       radius="0"
       unit="px"
       method="auto"
       mode="F"
       chamfer_steps="1"
       flexible="false"
       use_knot_distance="true"
       apply_no_radius="true"
       apply_with_radius="true"
       only_selected="false"
       hide_knots="false" />
  </defs>
  <g
     inkscape:label="Layer 1"
     inkscape:groupmode="layer"
     id="layer1"
     style="display:inline">
    <g
       id="g22">
      <path
         d="M 58.363281,27.822266 C 40.514726,27.83307 25.919922,42.434191 25.919922,60.285156 V 666.66211 c 0,0.004 -2e-6,0.008 0,0.0117 v 40.57226 c -1e-6,17.85758 14.603362,32.46289 32.460937,32.46289 H 734.42383 966.93164 c 17.84474,-0.0108 32.43712,-14.60541 32.44336,-32.45117 V 699.125 696.35937 100.85742 c -0.004,-10.112862 -4.691,-19.181949 -12,-25.144529 -5.59367,-4.563237 -12.72279,-7.306641 -20.46289,-7.306641 H 330.48047 A 10.172778,10.172778 0 0 1 320.30859,58.234375 v -0.974609 c -3.1e-4,-6.526389 -2.12438,-12.556682 -5.71875,-17.4375 -5.35937,-7.277542 -13.98758,-11.999531 -23.71875,-12 H 58.382812 c -0.0066,0 -0.01292,-4e-6 -0.01953,0 z M 55.507812,80.40625 H 966.91211 c 11.36921,-10e-7 20.45797,9.085144 20.46289,20.45313 v 568.67773 37.70898 c 0,11.3723 -9.0906,20.4629 -20.46289,20.46289 H 710.70508 58.380859 c -11.372293,0 -20.460938,-9.09059 -20.460937,-20.46289 V 691.81836 666.66211 97.992187 A 17.58734,17.58734 0 0 1 55.507812,80.40625 Z"
         style="baseline-shift:baseline;display:inline;overflow:visible;opacity:1;vector-effect:none;fill:#666666;fill-opacity:1;enable-background:accumulate;stop-color:#000000;stop-opacity:1"
         id="path10" />
      <path
         d="m 55.507812,80.40625 a 17.58734,17.58734 0 0 0 -17.58789,17.585937 v 568.669923 25.15625 15.42773 c -10e-7,11.3723 9.088644,20.46289 20.460937,20.46289 H 710.70508 966.91211 c 11.37229,10e-6 20.46289,-9.09059 20.46289,-20.46289 V 669.53711 100.85938 C 987.37,89.491394 978.28132,80.406249 966.91211,80.40625 Z"
         style="baseline-shift:baseline;display:inline;overflow:visible;opacity:1;vector-effect:none;fill:#f2f2f2;fill-opacity:1;enable-background:accumulate;stop-color:#000000;stop-opacity:1"
         id="path12" />
      <path
         d="m 290.87109,27.822266 c 9.73117,4.69e-4 18.35938,4.722458 23.71875,12 3.59437,4.880818 5.71844,10.911111 5.71875,17.4375 v 0.974609 a 10.172778,10.172778 0 0 0 10.17188,10.171875 h 636.43164 c 7.7401,0 14.86922,2.743404 20.46289,7.306641 7.309,5.96258 11.99647,15.031667 12,25.144529 V 60.285156 c 0,-17.85758 -14.60336,-32.46289 -32.46094,-32.46289 z"
         style="baseline-shift:baseline;display:inline;overflow:visible;opacity:1;vector-effect:none;fill:#999999;fill-opacity:1;enable-background:accumulate;stop-color:#000000;stop-opacity:1"
         id="path11" />
      <path
         style="opacity:1;fill:none;fill-opacity:1;stroke:#b3b3b3;stroke-width:28;stroke-linecap:round;stroke-dasharray:none"
         d="M 52.675997,54.114256 H 195.94194"
         id="path14" />
      <circle
         style="opacity:1;fill:#b3b3b3;fill-opacity:1;stroke:none;stroke-width:28;stroke-linecap:round;stroke-dasharray:none"
         id="path15"
         cx="291.88437"
         cy="55.408279"
         r="11.23368" />
      <g
         id="g17"
         style="fill:#666666">
        <circle
           style="opacity:1;fill:#666666;fill-opacity:1;stroke:none;stroke-width:28;stroke-linecap:round;stroke-dasharray:none"
           id="circle15"
           cx="964.90381"
           cy="48.114258"
           r="11.23368" />
        <circle
           style="opacity:1;fill:#666666;fill-opacity:1;stroke:none;stroke-width:28;stroke-linecap:round;stroke-dasharray:none"
           id="circle16"
           cx="928.34784"
           cy="48.114258"
           r="11.23368" />
        <circle
           style="opacity:1;fill:#666666;fill-opacity:1;stroke:none;stroke-width:28;stroke-linecap:round;stroke-dasharray:none"
           id="circle17"
           cx="891.79181"
           cy="48.114258"
           r="11.23368" />
      </g>
    </g>
    <g
       id="g1"
       transform="matrix(1.096015,0,0,1.0976416,-7.1568622,-65.141313)"
       style="stroke-width:0.911721">
      <rect
         style="fill:#aaeeff;fill-opacity:1;stroke:#999999;stroke-width:10.9408;stroke-linecap:round;stroke-dasharray:none"
         id="rect17"
         width="266.05527"
         height="179.53764"
         x="74.548058"
         y="203.61456"
         rx="9.4452581"
         ry="10.61017" />
      <circle
         style="fill:#ffe680;fill-opacity:1;stroke:#ffcc00;stroke-width:10.9408;stroke-linecap:round;stroke-dasharray:none"
         id="path22"
         cx="265.79062"
         cy="257.63983"
         r="23.809189" />
      <path
         id="path23"
         style="fill:#87de87;fill-opacity:1;stroke:#5fd35f;stroke-width:10.9408;stroke-linecap:round;stroke-dasharray:none"
         d="M 208.76953,313.86456 A 170.84996,50.939347 0 0 0 74.548828,333.28678 v 43.47579 c 0,3.53985 4.616474,6.38978 10.351563,6.38978 H 330.25195 c 5.73509,0 10.35157,-2.84993 10.35157,-6.38978 V 332.40274 A 170.84996,50.939347 0 0 0 208.76953,313.86456 Z" />
    </g>
    <g
       id="g4"
       transform="matrix(0.73648012,0,0,0.73837885,131.91641,72.507649)"
       style="stroke-width:1.35606">
      <rect
         style="fill:#d7eef4;fill-opacity:1;stroke:#999999;stroke-width:16.2728;stroke-linecap:round;stroke-dasharray:none"
         id="rect18"
         width="219.46901"
         height="266.88382"
         x="379.61984"
         y="116.2683"
         rx="14.056248"
         ry="15.772613" />
      <g
         id="g37"
         transform="matrix(0.79503106,0,0,0.80466029,81.783671,69.641238)"
         style="stroke-width:1.69544">
        <rect
           style="fill:#decd87;fill-opacity:1;stroke:#c8ab37;stroke-width:20.3452;stroke-linecap:round;stroke-dasharray:none"
           id="rect25"
           width="46.584694"
           height="77.641113"
           x="489.35513"
           y="229.68829" />
        <ellipse
           style="fill:#decd87;fill-opacity:1;stroke:#c8ab37;stroke-width:20.3452;stroke-linecap:round;stroke-dasharray:none"
           id="path24"
           cx="512.64746"
           cy="190.54422"
           rx="52.084248"
           ry="74.275917" />
      </g>
      <path
         id="path25"
         style="fill:#aca793;fill-opacity:1;stroke:#918a6f;stroke-width:16.2728;stroke-linecap:round;stroke-dasharray:none"
         d="m 489.35513,307.32941 a 126.49052,61.173216 0 0 0 -109.73532,30.74612 v 37.00979 c 0,4.46901 3.80973,8.06702 8.54058,8.06702 h 202.38788 c 4.73084,0 8.54057,-3.59801 8.54057,-8.06702 V 338.07553 A 126.49052,61.173216 0 0 0 489.35513,307.32941 Z" />
    </g>
    <g
       id="g3"
       transform="matrix(1.4108654,0,0,1.4205546,-248.22391,-334.18297)"
       style="stroke-width:0.706364">
      <rect
         style="fill:#aaeeff;fill-opacity:1;stroke:#999999;stroke-width:8.47637;stroke-linecap:round;stroke-dasharray:none"
         id="rect26"
         width="266.05527"
         height="173.71455"
         x="379.61972"
         y="518.13245"
         rx="7.3374448"
         ry="8.1983232" />
      <circle
         style="fill:#ffe680;fill-opacity:1;stroke:#ffcc00;stroke-width:8.47637;stroke-linecap:round;stroke-dasharray:none"
         id="circle26"
         cx="454.20728"
         cy="578.17413"
         r="24.262848" />
      <path
         id="path26"
         style="fill:#87de87;fill-opacity:1;stroke:#5fd35f;stroke-width:8.47637;stroke-linecap:round;stroke-dasharray:none"
         d="m 513.8412,634.49279 a 170.84996,42.166062 0 0 0 -134.2207,16.07714 v 35.98794 c 0,2.93018 4.61647,5.28927 10.35156,5.28927 h 245.35156 c 5.73509,0 10.35157,-2.35909 10.35157,-5.28927 V 649.83813 A 170.84996,42.166062 0 0 0 513.8412,634.49279 Z" />
    </g>
    <g
       id="g2"
       transform="matrix(1.248779,0,0,1.2559104,-236.56088,-125.80334)"
       style="stroke-width:0.798509">
      <rect
         style="fill:#aaeeff;fill-opacity:1;stroke:#999999;stroke-width:9.58212;stroke-linecap:round;stroke-dasharray:none"
         id="rect27"
         width="266.05527"
         height="156.89233"
         x="684.69159"
         y="226.26649"
         rx="8.2898188"
         ry="9.2730818" />
      <circle
         style="fill:#ffe680;fill-opacity:1;stroke:#ffcc00;stroke-width:9.58212;stroke-linecap:round;stroke-dasharray:none"
         id="circle27"
         cx="786.13"
         cy="285.33109"
         r="22.645325" />
      <path
         id="path27"
         style="fill:#87de87;fill-opacity:1;stroke:#5fd35f;stroke-width:9.58212;stroke-linecap:round;stroke-dasharray:none"
         d="m 818.91304,339.32053 a 170.84996,32.224488 0 0 0 -134.2207,12.2866 v 27.503 c 0,2.23932 4.61647,4.0422 10.35156,4.0422 h 245.35156 c 5.73509,0 10.35157,-1.80288 10.35157,-4.0422 V 351.04788 A 170.84996,32.224488 0 0 0 818.91304,339.32053 Z" />
    </g>
    <g
       id="g6"
       transform="matrix(0.92445038,0,0,0.92478251,71.777781,8.8343435)"
       style="stroke-width:1.08152">
      <rect
         style="fill:#e2e3db;fill-opacity:1;stroke:#999999;stroke-width:12.9784;stroke-linecap:round;stroke-dasharray:none"
         id="rect28"
         width="266.05527"
         height="266.88382"
         x="684.69159"
         y="424.9631"
         rx="11.198163"
         ry="12.593411" />
      <g
         id="g36"
         transform="translate(-2.828125e-5,19.086774)"
         style="stroke-width:1.08152">
        <rect
           style="fill:#decd87;fill-opacity:1;stroke:#c8ab37;stroke-width:12.9784;stroke-linecap:round;stroke-dasharray:none"
           id="rect29"
           width="46.584694"
           height="77.641113"
           x="794.42688"
           y="538.38312" />
        <ellipse
           style="fill:#decd87;fill-opacity:1;stroke:#c8ab37;stroke-width:12.9784;stroke-linecap:round;stroke-dasharray:none"
           id="ellipse29"
           cx="817.71924"
           cy="499.23901"
           rx="52.084248"
           ry="74.275917" />
      </g>
      <path
         id="path29"
         style="fill:#c8b7b7;fill-opacity:1;stroke:#ac9393;stroke-width:12.9784;stroke-linecap:round;stroke-dasharray:none"
         d="m 817.72019,616.02423 a 153.34042,61.173197 0 0 0 -133.02863,30.74612 v 37.00977 c 0,4.46901 4.61841,8.06702 10.35347,8.06702 H 940.3934 c 5.73505,0 10.35346,-3.59801 10.35346,-8.06702 V 646.77035 A 153.34042,61.173197 0 0 0 817.72019,616.02423 Z" />
    </g>
    <g
       id="g5"
       transform="matrix(0.92280596,0,0,0.92474337,-68.941424,8.8562235)"
       style="stroke-width:1.08252">
      <rect
         style="fill:#eef4d7;fill-opacity:1;stroke:#999999;stroke-width:12.9902;stroke-linecap:round;stroke-dasharray:none"
         id="rect30"
         width="185.11188"
         height="266.88382"
         x="155.49147"
         y="424.9631"
         rx="11.218119"
         ry="12.593944" />
      <g
         id="g35"
         transform="matrix(0.85754514,0,0,0.85754514,70.041866,93.578728)"
         style="stroke-width:1.26234">
        <rect
           style="fill:#decd87;fill-opacity:1;stroke:#c8ab37;stroke-width:15.1481;stroke-linecap:round;stroke-dasharray:none"
           id="rect31"
           width="46.584694"
           height="77.641113"
           x="184.28336"
           y="538.38312" />
        <ellipse
           style="fill:#decd87;fill-opacity:1;stroke:#c8ab37;stroke-width:15.1481;stroke-linecap:round;stroke-dasharray:none"
           id="ellipse31"
           cx="207.57568"
           cy="499.23901"
           rx="52.084248"
           ry="74.275917" />
      </g>
      <path
         id="path31"
         style="fill:#b7c8be;fill-opacity:1;stroke:#93ac9d;stroke-width:12.9902;stroke-linecap:round;stroke-dasharray:none"
         d="m 248.04807,606.96728 a 106.68886,68.480255 0 0 0 -92.55663,34.4187 v 41.43055 c 0,5.00282 3.21333,9.03061 7.20358,9.03061 h 170.70474 c 3.99025,0 7.20357,-4.02779 7.20357,-9.03061 v -41.43055 a 106.68886,68.480255 0 0 0 -92.55526,-34.4187 z" />
    </g>
    <g
       id="g11"
       inkscape:label="leading-lines"
       style="display:inline">
      <path
         style="opacity:0.577224;fill:none;stroke:#800000;stroke-width:12;stroke-linecap:round;stroke-linejoin:round;stroke-dasharray:12, 36;paint-order:stroke markers fill"
         d="m 67.710686,335.8084 c 299.208034,0 598.416064,0 897.624094,0"
         id="path1"
         inkscape:path-effect="#path-effect1"
         inkscape:original-d="m 67.710686,335.8084 c 299.208034,0 598.416064,0 897.624094,0"
         transform="translate(0,42.090427)" />
      <path
         style="opacity:0.577224;fill:none;stroke:#800000;stroke-width:12;stroke-linecap:round;stroke-linejoin:round;stroke-dasharray:12, 36;paint-order:stroke markers fill"
         d="m 67.710686,335.8084 c 299.208034,0 598.416064,0 897.624094,0"
         id="path2"
         inkscape:path-effect="#path-effect9"
         inkscape:original-d="m 67.710686,335.8084 c 299.208034,0 598.416064,0 897.624094,0"
         transform="translate(0,-201.30204)" />
      <path
         style="opacity:0.577224;fill:none;stroke:#800000;stroke-width:12;stroke-linecap:round;stroke-linejoin:round;stroke-dasharray:12, 36;paint-order:stroke markers fill"
         d="m 67.710686,335.8084 c 299.208034,0 598.416064,0 897.624094,0"
         id="path9"
         inkscape:path-effect="#path-effect11"
         inkscape:original-d="m 67.710686,335.8084 c 299.208034,0 598.416064,0 897.624094,0"
         transform="translate(0,337.63842)" />
    </g>
  </g>
</svg>
