<?xml version="1.0" encoding="UTF-8" standalone="no"?>
<svg
   width="400"
   height="300"
   version="1.1"
   id="svg15"
   sodipodi:docname="flexbox.svg"
   inkscape:version="1.4.2 (ebf0e940d0, 2025-05-08)"
   inkscape:export-filename="../assets/flexbox-leading-lines.svg"
   inkscape:export-xdpi="96"
   inkscape:export-ydpi="96"
   xmlns:inkscape="http://www.inkscape.org/namespaces/inkscape"
   xmlns:sodipodi="http://sodipodi.sourceforge.net/DTD/sodipodi-0.dtd"
   xmlns:xlink="http://www.w3.org/1999/xlink"
   xmlns="http://www.w3.org/2000/svg"
   xmlns:svg="http://www.w3.org/2000/svg">
  <defs
     id="defs15">
    <inkscape:path-effect
       effect="bspline"
       id="path-effect21"
       is_visible="true"
       lpeversion="1.3"
       weight="33.333333"
       steps="2"
       helper_size="0"
       apply_no_weight="true"
       apply_with_weight="true"
       only_selected="false"
       uniform="false" />
    <inkscape:path-effect
       effect="bspline"
       id="path-effect19"
       is_visible="true"
       lpeversion="1.3"
       weight="33.333333"
       steps="2"
       helper_size="0"
       apply_no_weight="true"
       apply_with_weight="true"
       only_selected="false"
       uniform="false" />
    <inkscape:path-effect
       effect="bspline"
       id="path-effect17"
       is_visible="true"
       lpeversion="1.3"
       weight="33.333333"
       steps="2"
       helper_size="0"
       apply_no_weight="true"
       apply_with_weight="true"
       only_selected="false"
       uniform="false" />
    <inkscape:path-effect
       effect="bspline"
       id="path-effect16"
       is_visible="true"
       lpeversion="1.3"
       weight="33.333333"
       steps="2"
       helper_size="0"
       apply_no_weight="true"
       apply_with_weight="true"
       only_selected="false"
       uniform="false" />
  </defs>
  <sodipodi:namedview
     id="namedview15"
     pagecolor="#ffffff"
     bordercolor="#000000"
     borderopacity="0.25"
     inkscape:showpageshadow="2"
     inkscape:pageopacity="0.0"
     inkscape:pagecheckerboard="0"
     inkscape:deskcolor="#d1d1d1"
     inkscape:zoom="1.4248202"
     inkscape:cx="19.300681"
     inkscape:cy="232.66094"
     inkscape:window-width="2560"
     inkscape:window-height="1403"
     inkscape:window-x="0"
     inkscape:window-y="0"
     inkscape:window-maximized="1"
     inkscape:current-layer="svg15"
     showgrid="true">
    <inkscape:grid
       id="grid15"
       units="px"
       originx="0"
       originy="0"
       spacingx="1"
       spacingy="1"
       empcolor="#0099e5"
       empopacity="0.30196078"
       color="#0099e5"
       opacity="0.14901961"
       empspacing="5"
       enabled="true"
       visible="true" />
  </sodipodi:namedview>
  <g
     id="a"
     stroke-width="4"
     transform="translate(-9,24)">
    <rect
       width="60"
       height="85"
       x="34"
       y="36"
       fill="#cccccc"
       stroke="#999999"
       rx="5"
       ry="5"
       id="rect1"
       style="stroke-width:4" />
    <g
       fill="#decd87"
       stroke="#a0892c"
       id="g2">
      <rect
         width="12"
         height="16"
         x="58"
         y="80"
         rx="0"
         ry="0"
         id="rect2" />
      <ellipse
         cx="64"
         cy="67"
         id="ellipse2"
         ry="16.930702"
         rx="13" />
    </g>
    <path
       fill="#9dac93"
       stroke="#5d6c53"
       d="m 64,93 c -10,0 -14,0.918678 -30,7 v 16 c 0,3 2,5 5,5 h 50 c 3.33333,0 5,-1.66667 5,-5 V 100 C 78,94 74,93 64,93 Z"
       id="path2"
       sodipodi:nodetypes="zcccsscz" />
  </g>
  <g
     id="b"
     stroke-width="4"
     transform="translate(-21.973541,10.877304)">
    <rect
       width="119.99998"
       height="85"
       x="121.97356"
       y="49.122696"
       fill="#afdde9"
       stroke="#5fbcd3"
       rx="5"
       ry="5"
       id="rect3"
       style="stroke-width:4" />
    <ellipse
       cx="206.97356"
       cy="74.122696"
       fill="#ffe680"
       stroke="#ffcc00"
       id="circle3"
       rx="12.000003"
       ry="12" />
    <path
       fill="#aade87"
       stroke="#71c837"
       d="m 181.97355,104.1227 c -18,0 -46,4 -60,10 v 15 c 0,3.33333 1.66667,5 5,5 h 110 c 3.33333,0 5,-1.66667 5,-5 v -15 c -14,-6 -42,-10 -60,-10 z"
       id="path3"
       sodipodi:nodetypes="ccsssscc" />
  </g>
  <use
     x="0"
     y="0"
     xlink:href="#a"
     id="use1"
     transform="translate(210)" />
  <use
     x="0"
     y="0"
     xlink:href="#b"
     id="use2"
     transform="translate(-210.00001)" />
  <use
     x="0"
     y="0"
     xlink:href="#b"
     id="use4"
     transform="translate(209.99998)" />
  <use
     x="0"
     y="0"
     xlink:href="#a"
     id="use7"
     transform="translate(49.999991,200)" />
  <use
     x="0"
     y="0"
     xlink:href="#a"
     id="use9"
     transform="translate(260,200)" />
  <use
     x="0"
     y="0"
     xlink:href="#b"
     id="use10"
     transform="translate(-160.00001,200)" />
  <use
     x="0"
     y="0"
     xlink:href="#b"
     id="use11"
     transform="translate(259.99998,200)" />
  <use
     x="0"
     y="0"
     xlink:href="#a"
     id="use12"
     transform="translate(150,99.999996)" />
  <use
     x="0"
     y="0"
     xlink:href="#b"
     id="use13"
     transform="matrix(-1,0,0,1,260.00001,99.999996)" />
  <use
     x="0"
     y="0"
     xlink:href="#b"
     id="use14"
     transform="translate(149.99999,99.999996)" />
  <use
     x="0"
     y="0"
     xlink:href="#a"
     id="use15"
     transform="translate(360,99.999996)" />
  <use
     x="0"
     y="0"
     xlink:href="#a"
     id="use16"
     transform="translate(-60,99.999996)" />
  <use
     x="0"
     y="0"
     xlink:href="#a"
     id="use17"
     transform="translate(70.000001,-99.069298)" />
  <use
     x="0"
     y="0"
     xlink:href="#b"
     id="use18"
     transform="translate(70.000001,-99.069298)" />
  <use
     x="0"
     y="0"
     xlink:href="#a"
     id="use19"
     transform="translate(280,-99.0693)" />
  <use
     x="0"
     y="0"
     xlink:href="#b"
     id="use20"
     transform="translate(-140.00002,-99.0693)" />
  <use
     x="0"
     y="0"
     xlink:href="#b"
     id="use21"
     transform="translate(279.99999,-99.0693)" />
  <g
     id="g23"
     inkscape:label="leading-lines"
     style="display:inline">
    <path
       style="fill:none;stroke:#ff7f2a;stroke-width:4;stroke-dasharray:12, 8"
       d="m 0,53 c 133.33333,0 266.66667,0 400,0"
       id="path21"
       inkscape:path-effect="#path-effect21"
       inkscape:original-d="m 0,53 c 133.33333,0 266.66667,0 400,0" />
    <use
       x="0"
       y="0"
       xlink:href="#path21"
       id="use22"
       transform="translate(0,99)" />
    <use
       x="0"
       y="0"
       xlink:href="#path21"
       id="use23"
       transform="translate(0,199)" />
  </g>
  <use
     x="0"
     y="0"
     xlink:href="#use13"
     id="use24"
     transform="translate(110,100)" />
</svg>
