<?xml version="1.0" encoding="UTF-8" standalone="no"?>
<!-- Created with Inkscape (http://www.inkscape.org/) -->

<svg
   width="1024"
   height="768"
   viewBox="0 0 1024 768"
   version="1.1"
   id="svg1"
   inkscape:version="1.4.2 (ebf0e940d0, 2025-05-08)"
   sodipodi:docname="square-grid-fit.svg"
   inkscape:export-filename="square-grid-fit-leading-lines.svg"
   inkscape:export-xdpi="96"
   inkscape:export-ydpi="96"
   xmlns:inkscape="http://www.inkscape.org/namespaces/inkscape"
   xmlns:sodipodi="http://sodipodi.sourceforge.net/DTD/sodipodi-0.dtd"
   xmlns="http://www.w3.org/2000/svg"
   xmlns:svg="http://www.w3.org/2000/svg">
  <sodipodi:namedview
     id="namedview1"
     pagecolor="#ffffff"
     bordercolor="#000000"
     borderopacity="0.25"
     inkscape:showpageshadow="2"
     inkscape:pageopacity="0.0"
     inkscape:pagecheckerboard="0"
     inkscape:deskcolor="#d1d1d1"
     inkscape:document-units="px"
     inkscape:zoom="1.0928851"
     inkscape:cx="538.94046"
     inkscape:cy="377.44132"
     inkscape:window-width="2560"
     inkscape:window-height="1403"
     inkscape:window-x="0"
     inkscape:window-y="0"
     inkscape:window-maximized="1"
     inkscape:current-layer="layer1" />
  <defs
     id="defs1">
    <inkscape:path-effect
       effect="bspline"
       id="path-effect9"
       is_visible="true"
       lpeversion="1.3"
       weight="33.333333"
       steps="2"
       helper_size="0"
       apply_no_weight="true"
       apply_with_weight="true"
       only_selected="false"
       uniform="false" />
    <inkscape:path-effect
       effect="bspline"
       id="path-effect7"
       is_visible="true"
       lpeversion="1.3"
       weight="33.333333"
       steps="2"
       helper_size="0"
       apply_no_weight="true"
       apply_with_weight="true"
       only_selected="false"
       uniform="false" />
    <inkscape:path-effect
       effect="bspline"
       id="path-effect2"
       is_visible="true"
       lpeversion="1.3"
       weight="33.333333"
       steps="2"
       helper_size="0"
       apply_no_weight="true"
       apply_with_weight="true"
       only_selected="false"
       uniform="false" />
    <inkscape:path-effect
       effect="bspline"
       id="path-effect1"
       is_visible="true"
       lpeversion="1.3"
       weight="33.333333"
       steps="2"
       helper_size="0"
       apply_no_weight="true"
       apply_with_weight="true"
       only_selected="false"
       uniform="false" />
    <inkscape:path-effect
       effect="fillet_chamfer"
       id="path-effect8"
       is_visible="true"
       lpeversion="1"
       nodesatellites_param="F,0,0,1,0,0,0,1 @ F,0,0,1,0,0,0,1 @ F,0,0,1,0,0,0,1 @ F,0,0,1,0,0,0,1 @ F,0,0,1,0,0,0,1 @ F,0,0,1,0,0,0,1 @ F,0,0,1,0,0,0,1 @ F,0,0,1,0,0,0,1 @ F,0,0,1,0,0,0,1 @ F,0,0,1,0,0,0,1 @ F,0,0,1,0,10.172778,0,1 @ F,0,0,1,0,0,0,1 @ F,0,0,1,0,0,0,1 | F,0,0,1,0,17.58734,0,1 @ F,0,0,1,0,0,0,1 @ F,0,0,1,0,0,0,1 @ F,0,0,1,0,0,0,1 @ F,0,0,1,0,0,0,1 @ F,0,0,1,0,0,0,1 @ F,0,0,1,0,0,0,1"
       radius="0"
       unit="px"
       method="auto"
       mode="F"
       chamfer_steps="1"
       flexible="false"
       use_knot_distance="true"
       apply_no_radius="true"
       apply_with_radius="true"
       only_selected="false"
       hide_knots="false" />
    <inkscape:path-effect
       effect="fillet_chamfer"
       id="path-effect6"
       is_visible="true"
       lpeversion="1"
       nodesatellites_param="F,0,0,1,0,0,0,1 @ F,0,0,1,0,0,0,1 @ F,0,0,1,0,0,0,1 @ F,0,0,1,0,0,0,1 @ F,0,0,1,0,0,0,1 @ F,0,0,1,0,0,0,1 @ F,0,0,1,0,0,0,1 @ F,0,0,1,0,0,0,1 @ F,0,0,1,0,0,0,1 @ F,0,0,1,0,0,0,1 @ F,0,0,1,0,10.172778,0,1 @ F,0,0,1,0,0,0,1 @ F,0,0,1,0,0,0,1 | F,0,0,1,0,17.58734,0,1 @ F,0,0,1,0,0,0,1 @ F,0,0,1,0,0,0,1 @ F,0,0,1,0,0,0,1 @ F,0,0,1,0,0,0,1 @ F,0,0,1,0,0,0,1 @ F,0,0,1,0,0,0,1"
       radius="0"
       unit="px"
       method="auto"
       mode="F"
       chamfer_steps="1"
       flexible="false"
       use_knot_distance="true"
       apply_no_radius="true"
       apply_with_radius="true"
       only_selected="false"
       hide_knots="false" />
    <inkscape:path-effect
       effect="fillet_chamfer"
       id="path-effect5"
       is_visible="true"
       lpeversion="1"
       nodesatellites_param="F,0,0,1,0,29.438922,0,1 @ F,0,1,1,0,29.438922,0,1 @ F,0,0,1,0,0,0,1 @ F,0,0,1,0,0,0,1"
       radius="0"
       unit="px"
       method="auto"
       mode="F"
       chamfer_steps="1"
       flexible="false"
       use_knot_distance="true"
       apply_no_radius="true"
       apply_with_radius="true"
       only_selected="false"
       hide_knots="false" />
    <inkscape:path-effect
       effect="fillet_chamfer"
       id="path-effect4"
       is_visible="true"
       lpeversion="1"
       nodesatellites_param="F,0,0,1,0,0,0,1 @ F,0,1,1,0,26.462678,0,1 @ F,0,1,1,0,26.462678,0,1 @ F,0,0,1,0,26.462678,0,1"
       radius="0"
       unit="px"
       method="auto"
       mode="F"
       chamfer_steps="1"
       flexible="false"
       use_knot_distance="true"
       apply_no_radius="true"
       apply_with_radius="true"
       only_selected="false"
       hide_knots="false" />
    <inkscape:path-effect
       effect="fillet_chamfer"
       id="path-effect3"
       is_visible="true"
       lpeversion="1"
       nodesatellites_param="F,0,0,1,0,0,0,1 @ F,0,0,1,0,0,0,1 @ F,0,0,1,0,0,0,1 @ F,0,0,1,0,0,0,1"
       radius="0"
       unit="px"
       method="auto"
       mode="F"
       chamfer_steps="1"
       flexible="false"
       use_knot_distance="true"
       apply_no_radius="true"
       apply_with_radius="true"
       only_selected="false"
       hide_knots="false" />
  </defs>
  <g
     inkscape:label="Layer 1"
     inkscape:groupmode="layer"
     id="layer1">
    <g
       id="g22">
      <path
         d="M 58.363281,27.822266 C 40.514726,27.83307 25.919922,42.434191 25.919922,60.285156 V 666.66211 c 0,0.004 -2e-6,0.008 0,0.0117 v 40.57226 c -1e-6,17.85758 14.603362,32.46289 32.460937,32.46289 H 734.42383 966.93164 c 17.84474,-0.0108 32.43712,-14.60541 32.44336,-32.45117 V 699.125 696.35937 100.85742 c -0.004,-10.112862 -4.691,-19.181949 -12,-25.144529 -5.59367,-4.563237 -12.72279,-7.306641 -20.46289,-7.306641 H 330.48047 A 10.172778,10.172778 0 0 1 320.30859,58.234375 v -0.974609 c -3.1e-4,-6.526389 -2.12438,-12.556682 -5.71875,-17.4375 -5.35937,-7.277542 -13.98758,-11.999531 -23.71875,-12 H 58.382812 c -0.0066,0 -0.01292,-4e-6 -0.01953,0 z M 55.507812,80.40625 H 966.91211 c 11.36921,-10e-7 20.45797,9.085144 20.46289,20.45313 v 568.67773 37.70898 c 0,11.3723 -9.0906,20.4629 -20.46289,20.46289 H 710.70508 58.380859 c -11.372293,0 -20.460938,-9.09059 -20.460937,-20.46289 V 691.81836 666.66211 97.992187 A 17.58734,17.58734 0 0 1 55.507812,80.40625 Z"
         style="baseline-shift:baseline;display:inline;overflow:visible;opacity:1;vector-effect:none;fill-opacity:1;enable-background:accumulate;stop-color:#000000;stop-opacity:1;fill:#666666"
         id="path10" />
      <path
         d="m 55.507812,80.40625 a 17.58734,17.58734 0 0 0 -17.58789,17.585937 v 568.669923 25.15625 15.42773 c -10e-7,11.3723 9.088644,20.46289 20.460937,20.46289 H 710.70508 966.91211 c 11.37229,10e-6 20.46289,-9.09059 20.46289,-20.46289 V 669.53711 100.85938 c -0.005,-11.367986 -9.09368,-20.453131 -20.46289,-20.45313 z"
         style="baseline-shift:baseline;display:inline;overflow:visible;opacity:1;vector-effect:none;fill:#f2f2f2;fill-opacity:1;enable-background:accumulate;stop-color:#000000;stop-opacity:1"
         id="path12" />
      <path
         d="m 290.87109,27.822266 c 9.73117,4.69e-4 18.35938,4.722458 23.71875,12 3.59437,4.880818 5.71844,10.911111 5.71875,17.4375 v 0.974609 a 10.172778,10.172778 0 0 0 10.17188,10.171875 h 636.43164 c 7.7401,0 14.86922,2.743404 20.46289,7.306641 7.309,5.96258 11.99647,15.031667 12,25.144529 V 60.285156 c 0,-17.85758 -14.60336,-32.46289 -32.46094,-32.46289 z"
         style="baseline-shift:baseline;display:inline;overflow:visible;opacity:1;vector-effect:none;fill:#999999;fill-opacity:1;enable-background:accumulate;stop-color:#000000;stop-opacity:1"
         id="path11" />
      <path
         style="opacity:1;fill:none;fill-opacity:1;stroke:#b3b3b3;stroke-width:28;stroke-linecap:round;stroke-dasharray:none"
         d="M 52.675997,54.114256 H 195.94194"
         id="path14" />
      <circle
         style="opacity:1;fill:#b3b3b3;fill-opacity:1;stroke:none;stroke-width:28;stroke-linecap:round;stroke-dasharray:none"
         id="path15"
         cx="291.88437"
         cy="55.408279"
         r="11.23368" />
      <g
         id="g17"
         style="fill:#666666">
        <circle
           style="opacity:1;fill:#666666;fill-opacity:1;stroke:none;stroke-width:28;stroke-linecap:round;stroke-dasharray:none"
           id="circle15"
           cx="964.90381"
           cy="48.114258"
           r="11.23368" />
        <circle
           style="opacity:1;fill:#666666;fill-opacity:1;stroke:none;stroke-width:28;stroke-linecap:round;stroke-dasharray:none"
           id="circle16"
           cx="928.34784"
           cy="48.114258"
           r="11.23368" />
        <circle
           style="opacity:1;fill:#666666;fill-opacity:1;stroke:none;stroke-width:28;stroke-linecap:round;stroke-dasharray:none"
           id="circle17"
           cx="891.79181"
           cy="48.114258"
           r="11.23368" />
      </g>
    </g>
    <g
       id="g1"
       transform="translate(0,-43.673135)">
      <rect
         style="fill:#aaeeff;fill-opacity:1;stroke:#999999;stroke-width:12;stroke-linecap:round;stroke-dasharray:none"
         id="rect17"
         width="266.05527"
         height="179.53764"
         x="74.548058"
         y="203.61456"
         rx="10.352146"
         ry="11.646167" />
      <circle
         style="fill:#ffe680;fill-opacity:1;stroke:#ffcc00;stroke-width:12;stroke-linecap:round;stroke-dasharray:none"
         id="path22"
         cx="265.79062"
         cy="257.63983"
         r="23.809189" />
      <path
         id="path23"
         style="fill:#87de87;fill-opacity:1;stroke:#5fd35f;stroke-width:12;stroke-linecap:round;stroke-dasharray:none"
         d="M 208.76953,313.86456 A 170.84996,50.939347 0 0 0 74.548828,333.28678 v 43.47579 c 0,3.53985 4.616474,6.38978 10.351563,6.38978 H 330.25195 c 5.73509,0 10.35157,-2.84993 10.35157,-6.38978 V 332.40274 A 170.84996,50.939347 0 0 0 208.76953,313.86456 Z" />
    </g>
    <g
       id="g4"
       transform="translate(23.293124)">
      <rect
         style="fill:#d7eef4;fill-opacity:1;stroke:#999999;stroke-width:12;stroke-linecap:round;stroke-dasharray:none"
         id="rect18"
         width="219.46901"
         height="266.88382"
         x="379.61984"
         y="116.2683"
         rx="10.352146"
         ry="11.646167" />
      <g
         id="g37"
         transform="matrix(0.79503106,0,0,0.80466029,81.783671,69.641238)"
         style="stroke-width:1.25026">
        <rect
           style="fill:#decd87;fill-opacity:1;stroke:#c8ab37;stroke-width:15.0032;stroke-linecap:round;stroke-dasharray:none"
           id="rect25"
           width="46.584694"
           height="77.641113"
           x="489.35513"
           y="229.68829" />
        <ellipse
           style="fill:#decd87;fill-opacity:1;stroke:#c8ab37;stroke-width:15.0032;stroke-linecap:round;stroke-dasharray:none"
           id="path24"
           cx="512.64746"
           cy="190.54422"
           rx="52.084248"
           ry="74.275917" />
      </g>
      <path
         id="path25"
         style="fill:#aca793;fill-opacity:1;stroke:#918a6f;stroke-width:12;stroke-linecap:round;stroke-dasharray:none"
         d="m 489.35513,307.32941 a 126.49052,61.173216 0 0 0 -109.73532,30.74612 v 37.00979 c 0,4.46901 3.80973,8.06702 8.54058,8.06702 h 202.38788 c 4.73084,0 8.54057,-3.59801 8.54057,-8.06702 V 338.07553 A 126.49052,61.173216 0 0 0 489.35513,307.32941 Z" />
    </g>
    <g
       id="g3"
       transform="translate(0,-46.584675)">
      <rect
         style="fill:#aaeeff;fill-opacity:1;stroke:#999999;stroke-width:12;stroke-linecap:round;stroke-dasharray:none"
         id="rect26"
         width="266.05527"
         height="173.71455"
         x="379.61972"
         y="518.13245"
         rx="10.352146"
         ry="11.646167" />
      <circle
         style="fill:#ffe680;fill-opacity:1;stroke:#ffcc00;stroke-width:12;stroke-linecap:round;stroke-dasharray:none"
         id="circle26"
         cx="454.20728"
         cy="578.17413"
         r="24.262848" />
      <path
         id="path26"
         style="fill:#87de87;fill-opacity:1;stroke:#5fd35f;stroke-width:12;stroke-linecap:round;stroke-dasharray:none"
         d="m 513.8412,634.49279 a 170.84996,42.166062 0 0 0 -134.2207,16.07714 v 35.98794 c 0,2.93018 4.61647,5.28927 10.35156,5.28927 h 245.35156 c 5.73509,0 10.35157,-2.35909 10.35157,-5.28927 V 649.83813 A 170.84996,42.166062 0 0 0 513.8412,634.49279 Z" />
    </g>
    <g
       id="g2"
       transform="translate(0,-54.99578)">
      <rect
         style="fill:#aaeeff;fill-opacity:1;stroke:#999999;stroke-width:12;stroke-linecap:round;stroke-dasharray:none"
         id="rect27"
         width="266.05527"
         height="156.89233"
         x="684.69159"
         y="226.25987"
         rx="10.352146"
         ry="11.646167" />
      <circle
         style="fill:#ffe680;fill-opacity:1;stroke:#ffcc00;stroke-width:12;stroke-linecap:round;stroke-dasharray:none"
         id="circle27"
         cx="786.13"
         cy="285.33109"
         r="22.645325" />
      <path
         id="path27"
         style="fill:#87de87;fill-opacity:1;stroke:#5fd35f;stroke-width:12;stroke-linecap:round;stroke-dasharray:none"
         d="m 818.91304,339.32053 a 170.84996,32.224488 0 0 0 -134.2207,12.2866 v 27.503 c 0,2.23932 4.61647,4.0422 10.35156,4.0422 h 245.35156 c 5.73509,0 10.35157,-1.80288 10.35157,-4.0422 V 351.04788 A 170.84996,32.224488 0 0 0 818.91304,339.32053 Z" />
    </g>
    <g
       id="g6">
      <rect
         style="fill:#e2e3db;fill-opacity:1;stroke:#999999;stroke-width:12;stroke-linecap:round;stroke-dasharray:none"
         id="rect28"
         width="266.05527"
         height="266.88382"
         x="684.69159"
         y="424.9631"
         rx="10.352146"
         ry="11.646167" />
      <g
         id="g36"
         transform="translate(-2.828125e-5,19.086774)">
        <rect
           style="fill:#decd87;fill-opacity:1;stroke:#c8ab37;stroke-width:12;stroke-linecap:round;stroke-dasharray:none"
           id="rect29"
           width="46.584694"
           height="77.641113"
           x="794.42688"
           y="538.38312" />
        <ellipse
           style="fill:#decd87;fill-opacity:1;stroke:#c8ab37;stroke-width:12;stroke-linecap:round;stroke-dasharray:none"
           id="ellipse29"
           cx="817.71924"
           cy="499.23901"
           rx="52.084248"
           ry="74.275917" />
      </g>
      <path
         id="path29"
         style="fill:#c8b7b7;fill-opacity:1;stroke:#ac9393;stroke-width:12;stroke-linecap:round;stroke-dasharray:none"
         d="m 817.72019,616.02423 a 153.34042,61.173197 0 0 0 -133.02863,30.74612 v 37.00977 c 0,4.46901 4.61841,8.06702 10.35347,8.06702 H 940.3934 c 5.73505,0 10.35346,-3.59801 10.35346,-8.06702 V 646.77035 A 153.34042,61.173197 0 0 0 817.72019,616.02423 Z" />
    </g>
    <g
       id="g5"
       transform="translate(-40.471605)"
       inkscape:export-filename="../square-grid-fit.svg"
       inkscape:export-xdpi="96"
       inkscape:export-ydpi="96">
      <rect
         style="fill:#eef4d7;fill-opacity:1;stroke:#999999;stroke-width:12;stroke-linecap:round;stroke-dasharray:none"
         id="rect30"
         width="185.11188"
         height="266.88382"
         x="155.49147"
         y="424.9631"
         rx="10.352146"
         ry="11.646167" />
      <g
         id="g35"
         transform="matrix(0.85754514,0,0,0.85754514,70.041866,93.578728)"
         style="stroke-width:1.16612">
        <rect
           style="fill:#decd87;fill-opacity:1;stroke:#c8ab37;stroke-width:13.9934;stroke-linecap:round;stroke-dasharray:none"
           id="rect31"
           width="46.584694"
           height="77.641113"
           x="184.28336"
           y="538.38312" />
        <ellipse
           style="fill:#decd87;fill-opacity:1;stroke:#c8ab37;stroke-width:13.9934;stroke-linecap:round;stroke-dasharray:none"
           id="ellipse31"
           cx="207.57568"
           cy="499.23901"
           rx="52.084248"
           ry="74.275917" />
      </g>
      <path
         id="path31"
         style="fill:#b7c8be;fill-opacity:1;stroke:#93ac9d;stroke-width:12;stroke-linecap:round;stroke-dasharray:none"
         d="m 248.04807,606.96728 a 106.68886,68.480255 0 0 0 -92.55663,34.4187 v 41.43055 c 0,5.00282 3.21333,9.03061 7.20358,9.03061 h 170.70474 c 3.99025,0 7.20357,-4.02779 7.20357,-9.03061 v -41.43055 a 106.68886,68.480255 0 0 0 -92.55526,-34.4187 z" />
    </g>
    <g
       id="g7"
       inkscape:label="leading-lines"
       style="display:inline"
       inkscape:export-filename="/var/home/aleksandr/Documents/prog/github/kadykov.com/src/content/square-grid-fit-leading-lines.svg"
       inkscape:export-xdpi="96"
       inkscape:export-ydpi="96">
      <path
         style="opacity:0.577224;fill:none;stroke:#800000;stroke-width:12;stroke-linecap:round;stroke-linejoin:round;stroke-dasharray:12, 36;stroke-dashoffset:0;paint-order:stroke markers fill"
         d="m 80.520816,384.30389 c 81.740824,0.61001 163.481654,1.22001 214.112364,8.99774 50.63071,7.77773 70.15052,22.72259 119.71431,30.95769 49.5638,8.23509 129.16802,9.76008 179.64624,0.60979 50.47822,-9.1503 71.82802,-28.9751 126.27194,-39.19271 54.44393,-10.21761 141.97807,-10.8276 229.51395,-11.43761"
         id="path1"
         inkscape:path-effect="#path-effect1"
         inkscape:original-d="m 80.520816,384.30389 c 81.740824,0.61001 163.481654,1.22002 245.222484,1.83002 19.52059,14.94545 39.0404,29.89031 58.56059,44.83546 79.6074,1.52504 159.21162,3.05003 238.81742,4.57504 21.35065,-19.82559 42.70044,-39.6504 64.05065,-59.4756 87.53764,-0.61002 175.07178,-1.22001 262.60766,-1.83002" />
      <path
         style="opacity:0.577224;fill:none;stroke:#800000;stroke-width:12;stroke-linecap:round;stroke-linejoin:round;stroke-dasharray:12, 36;stroke-dashoffset:0;paint-order:stroke markers fill"
         d="m 369.66375,132.67634 c 0.305,76.55578 0.61001,153.11156 -4.42265,206.4874 -5.03265,53.37584 -15.40255,83.57054 -20.4351,134.20176 -5.03255,50.63123 -4.72755,121.69553 -4.42255,192.76125"
         id="path2"
         inkscape:path-effect="#path-effect2"
         inkscape:original-d="m 369.66375,132.67634 c 0.305,76.55578 0.61,153.11156 0.91501,229.66733 -10.37032,30.19591 -20.74021,60.39061 -31.11032,90.58592 0.30501,71.06714 0.61001,142.13144 0.91501,213.19716" />
      <path
         style="opacity:0.577224;fill:none;stroke:#800000;stroke-width:12;stroke-linecap:round;stroke-linejoin:round;stroke-dasharray:12, 36;stroke-dashoffset:0;paint-order:stroke markers fill"
         d="m 663.38172,666.12675 c 0,-72.28573 0,-144.57146 -1.83005,-197.94735 -1.83006,-53.37589 -5.49002,-87.84055 -7.32004,-140.14928 -1.83002,-52.30873 -1.83002,-122.45804 -1.83002,-192.60875"
         id="path7"
         inkscape:path-effect="#path-effect9"
         inkscape:original-d="m 663.38172,666.12675 c 0,-72.28573 0,-144.57146 0,-216.8572 -3.66011,-34.46604 -7.32007,-68.9307 -10.98011,-103.39605 0,-70.15211 0,-140.30142 0,-210.45213" />
    </g>
  </g>
</svg>
