<?xml version="1.0" encoding="UTF-8" standalone="no"?>
<svg
   width="400"
   height="300"
   version="1.1"
   id="svg15"
   sodipodi:docname="square-grid-fit.svg"
   inkscape:version="1.4.2 (ebf0e940d0, 2025-05-08)"
   inkscape:export-filename="../assets/square-grid-fit-leading-lines.svg"
   inkscape:export-xdpi="96"
   inkscape:export-ydpi="96"
   xmlns:inkscape="http://www.inkscape.org/namespaces/inkscape"
   xmlns:sodipodi="http://sodipodi.sourceforge.net/DTD/sodipodi-0.dtd"
   xmlns:xlink="http://www.w3.org/1999/xlink"
   xmlns="http://www.w3.org/2000/svg"
   xmlns:svg="http://www.w3.org/2000/svg">
  <defs
     id="defs15">
    <inkscape:path-effect
       effect="bspline"
       id="path-effect19"
       is_visible="true"
       lpeversion="1.3"
       weight="33.333333"
       steps="2"
       helper_size="0"
       apply_no_weight="true"
       apply_with_weight="true"
       only_selected="false"
       uniform="false" />
    <inkscape:path-effect
       effect="bspline"
       id="path-effect17"
       is_visible="true"
       lpeversion="1.3"
       weight="33.333333"
       steps="2"
       helper_size="0"
       apply_no_weight="true"
       apply_with_weight="true"
       only_selected="false"
       uniform="false" />
    <inkscape:path-effect
       effect="bspline"
       id="path-effect16"
       is_visible="true"
       lpeversion="1.3"
       weight="33.333333"
       steps="2"
       helper_size="0"
       apply_no_weight="true"
       apply_with_weight="true"
       only_selected="false"
       uniform="false" />
  </defs>
  <sodipodi:namedview
     id="namedview15"
     pagecolor="#ffffff"
     bordercolor="#000000"
     borderopacity="0.25"
     inkscape:showpageshadow="2"
     inkscape:pageopacity="0.0"
     inkscape:pagecheckerboard="0"
     inkscape:deskcolor="#d1d1d1"
     inkscape:zoom="1.4248202"
     inkscape:cx="56.147437"
     inkscape:cy="134.40293"
     inkscape:window-width="2560"
     inkscape:window-height="1403"
     inkscape:window-x="0"
     inkscape:window-y="0"
     inkscape:window-maximized="1"
     inkscape:current-layer="svg15"
     showgrid="true">
    <inkscape:grid
       id="grid15"
       units="px"
       originx="0"
       originy="0"
       spacingx="1"
       spacingy="1"
       empcolor="#0099e5"
       empopacity="0.30196078"
       color="#0099e5"
       opacity="0.14901961"
       empspacing="5"
       enabled="true"
       visible="true" />
  </sodipodi:namedview>
  <g
     id="a"
     stroke-width="4"
     transform="translate(130 9)">
    <rect
       width="72"
       height="100"
       x="34"
       y="36"
       fill="#cccccc"
       stroke="#999999"
       rx="5"
       ry="5"
       id="rect1"
       style="stroke-width:4" />
    <g
       fill="#decd87"
       stroke="#a0892c"
       id="g2">
      <rect
         width="16"
         height="21"
         x="62"
         y="89"
         rx="0"
         ry="0"
         id="rect2" />
      <ellipse
         cx="70"
         cy="72.930702"
         id="ellipse2"
         ry="21.928806"
         rx="17" />
    </g>
    <path
       fill="#9dac93"
       stroke="#5d6c53"
       d="m 70,105 c -17,0 -20.033923,2.93157 -36,9 v 17 c 0,3 2,5 5,5 h 62 c 3.33333,0 5,-1.66667 5,-5 v -17 c -16.000002,-6 -19,-9 -36,-9 z"
       id="path2"
       sodipodi:nodetypes="zcccsscz" />
  </g>
  <g
     id="b"
     stroke-width="4"
     transform="translate(12 124)">
    <rect
       width="100"
       height="72"
       x="138"
       y="50"
       fill="#afdde9"
       stroke="#5fbcd3"
       rx="5"
       ry="5"
       id="rect3"
       style="stroke-width:4" />
    <circle
       cx="210"
       cy="74"
       fill="#ffe680"
       stroke="#ffcc00"
       id="circle3"
       r="10" />
    <path
       fill="#aade87"
       stroke="#71c837"
       d="m 188,96 c -18.24361,0.133457 -35.86165,3.304703 -50,9 v 12 c 0,3.33333 1.66667,5 5,5 h 90 c 3.33333,0 5,-1.66667 5,-5 v -12 c -14.13835,-5.695297 -31.75639,-8.866543 -50,-9 z"
       id="path3"
       sodipodi:nodetypes="ccsssscc" />
  </g>
  <g
     id="g21"
     inkscape:label="leading-lines"
     style="display:inline">
    <path
       style="fill:none;stroke:#ff7f2a;stroke-width:4;stroke-dasharray:12, 8"
       d="m 35,-70 c 0,33.333333 0,66.6666667 -2.50005,85.833383 C 29.9999,35.0001 25,40 22.5,59.167 20,78.334 20,111.66667 22.50005,130.83338 25.0001,150.0001 30,155 32.5,174.167 35,193.334 35,226.66667 32.49995,245.83338 29.9999,265.0001 25,270 22.5,289.167 20,308.334 20,341.66667 20,375"
       id="path17"
       inkscape:path-effect="#path-effect17"
       inkscape:original-d="m 35,-70 c 0,33.333333 0,66.6666667 0,100 -5.0001,5.0001 -10,10 -15,15 0,33.334 0,66.66667 0,100 5.0001,5.0001 10,10 15,15 0,33.334 0,66.66667 0,100 -5.0001,5.0001 -10,10 -15,15 0,33.334 0,66.66667 0,100" />
    <use
       x="0"
       y="0"
       xlink:href="#path17"
       id="use17"
       transform="translate(230)" />
    <use
       x="0"
       y="0"
       xlink:href="#path17"
       id="use18"
       transform="matrix(-1,0,0,1,170,0)" />
    <path
       style="fill:none;stroke:#ff7f2a;stroke-width:4;stroke-dasharray:12, 8"
       d="m -80,30 c 33.333333,0 66.666667,0 85.8333835,2.50005 C 25.0001,35.0001 30,40 49.167,42.5 68.334,45 101.66667,45 120.83338,42.49995 140.0001,39.9999 145,35 164.167,32.5 183.334,30 216.66667,30 235.83339,32.50005 255.0001,35.0001 260,40 279.167,42.5 298.334,45 331.66667,45 350.83339,42.49995 370.0001,39.9999 375,35 394.167,32.5 413.334,30 446.66667,30 480,30"
       id="path19"
       inkscape:path-effect="#path-effect19"
       inkscape:original-d="m -80,30 c 33.333333,0 66.666667,0 100,0 5.0001,5.0001 10,10 15,15 33.334,0 66.66667,0 100,0 5.0001,-5.0001 10,-10 15,-15 33.334,0 66.66667,0 100,0 5.0001,5.0001 10,10 15,15 33.334,0 66.66667,0 100,0 5.0001,-5.0001 10,-10 15,-15 33.334,0 66.66667,0 100,0" />
    <use
       x="0"
       y="0"
       xlink:href="#path19"
       id="use20"
       transform="translate(0,230)" />
    <use
       x="0"
       y="0"
       xlink:href="#path19"
       id="use21"
       transform="matrix(1,0,0,-1,0,190)" />
    <use
       x="0"
       y="0"
       xlink:href="#use18"
       id="use34"
       transform="translate(230)" />
  </g>
  <use
     x="0"
     y="0"
     xlink:href="#a"
     id="use1"
     transform="translate(230)" />
  <use
     x="0"
     y="0"
     xlink:href="#a"
     id="use2"
     transform="translate(0,230)" />
  <use
     x="0"
     y="0"
     xlink:href="#a"
     id="use13"
     transform="translate(-230)" />
  <use
     x="0"
     y="0"
     xlink:href="#a"
     id="use14"
     transform="translate(-115,-115)" />
  <use
     x="0"
     y="0"
     xlink:href="#a"
     id="use15"
     transform="translate(115,-115)" />
  <use
     x="0"
     y="0"
     xlink:href="#a"
     id="use16"
     transform="translate(115,115)" />
  <use
     x="0"
     y="0"
     xlink:href="#a"
     id="use22"
     transform="translate(-230,230)" />
  <use
     x="0"
     y="0"
     xlink:href="#a"
     id="use23"
     transform="translate(230,230)" />
  <use
     x="0"
     y="0"
     xlink:href="#b"
     id="use24"
     transform="translate(0,-230)" />
  <use
     x="0"
     y="0"
     xlink:href="#b"
     id="use25"
     transform="translate(230)" />
  <use
     x="0"
     y="0"
     xlink:href="#b"
     id="use26"
     transform="matrix(-1,0,0,1,515,-115)" />
  <use
     x="0"
     y="0"
     xlink:href="#b"
     id="use27"
     transform="translate(115,115)" />
  <use
     x="0"
     y="0"
     xlink:href="#b"
     id="use28"
     transform="translate(230,-230)" />
  <use
     x="0"
     y="0"
     xlink:href="#b"
     id="use29"
     transform="translate(-115,115)" />
  <use
     x="0"
     y="0"
     xlink:href="#b"
     id="use30"
     transform="translate(-115,-115)" />
  <use
     x="0"
     y="0"
     xlink:href="#b"
     id="use31"
     transform="translate(-230,-230)" />
  <use
     x="0"
     y="0"
     xlink:href="#b"
     id="use32"
     transform="translate(-230)" />
  <use
     x="0"
     y="0"
     xlink:href="#a"
     id="use33"
     transform="translate(-115,115)" />
</svg>
