<?xml version="1.0" encoding="UTF-8" standalone="no"?>
<svg
   width="400"
   height="300"
   version="1.1"
   id="svg15"
   sodipodi:docname="square-grid.svg"
   inkscape:version="1.4.2 (ebf0e940d0, 2025-05-08)"
   inkscape:export-filename="../assets/square-grid-leading-lines.svg"
   inkscape:export-xdpi="96"
   inkscape:export-ydpi="96"
   xmlns:inkscape="http://www.inkscape.org/namespaces/inkscape"
   xmlns:sodipodi="http://sodipodi.sourceforge.net/DTD/sodipodi-0.dtd"
   xmlns:xlink="http://www.w3.org/1999/xlink"
   xmlns="http://www.w3.org/2000/svg"
   xmlns:svg="http://www.w3.org/2000/svg">
  <defs
     id="defs15" />
  <sodipodi:namedview
     id="namedview15"
     pagecolor="#ffffff"
     bordercolor="#000000"
     borderopacity="0.25"
     inkscape:showpageshadow="2"
     inkscape:pageopacity="0.0"
     inkscape:pagecheckerboard="0"
     inkscape:deskcolor="#d1d1d1"
     inkscape:zoom="2.015"
     inkscape:cx="115.63275"
     inkscape:cy="165.50868"
     inkscape:window-width="2560"
     inkscape:window-height="1403"
     inkscape:window-x="0"
     inkscape:window-y="0"
     inkscape:window-maximized="1"
     inkscape:current-layer="svg15"
     showgrid="true">
    <inkscape:grid
       id="grid15"
       units="px"
       originx="0"
       originy="0"
       spacingx="1"
       spacingy="1"
       empcolor="#0099e5"
       empopacity="0.30196078"
       color="#0099e5"
       opacity="0.14901961"
       empspacing="5"
       enabled="true"
       visible="true" />
  </sodipodi:namedview>
  <g
     id="a"
     stroke-width="4"
     transform="translate(130 9)">
    <rect
       width="100"
       height="100"
       x="20"
       y="36"
       fill="#ccc"
       stroke="#999"
       rx="5"
       ry="5"
       id="rect1" />
    <g
       fill="#decd87"
       stroke="#a0892c"
       id="g2">
      <rect
         width="20"
         height="25"
         x="60"
         y="87"
         rx="0"
         ry="0"
         id="rect2" />
      <ellipse
         cx="70"
         cy="66"
         rx="22"
         ry="30"
         id="ellipse2" />
    </g>
    <path
       fill="#9dac93"
       stroke="#5d6c53"
       d="m 70,105 c -17,0 -34.033923,2.93157 -50,9 v 17 c 0,3 2,5 5,5 h 90 c 3.33333,0 5,-1.66667 5,-5 v -17 c -16,-6 -33,-9 -50,-9 z"
       id="path2"
       sodipodi:nodetypes="zcccsscz" />
  </g>
  <g
     id="b"
     stroke-width="4"
     transform="translate(12 124)">
    <rect
       width="100"
       height="100"
       x="138"
       y="36"
       fill="#afdde9"
       stroke="#5fbcd3"
       rx="5"
       ry="5"
       id="rect3" />
    <circle
       cx="208"
       cy="67"
       r="12"
       fill="#ffe680"
       stroke="#fc0"
       id="circle3" />
    <path
       fill="#aade87"
       stroke="#71c837"
       d="M188 96a81 40 0 0 0-50 9v26q0 5 5 5h90q5 0 5-5v-26a81 40 0 0 0-50-9z"
       id="path3" />
  </g>
  <use
     xlink:href="#a"
     id="c"
     x="0"
     y="0"
     transform="translate(115 115)" />
  <use
     xlink:href="#b"
     id="d"
     x="0"
     y="0"
     transform="translate(115 -115)" />
  <use
     xlink:href="#a"
     id="e"
     x="0"
     y="0"
     transform="translate(-230)" />
  <use
     xlink:href="#b"
     id="g"
     x="0"
     y="0"
     transform="translate(-230)" />
  <use
     xlink:href="#c"
     id="h"
     x="0"
     y="0"
     transform="translate(-230)" />
  <use
     xlink:href="#d"
     id="f"
     x="0"
     y="0"
     transform="matrix(-1,0,0,1,400,0)" />
  <use
     xlink:href="#a"
     id="i"
     x="0"
     y="0"
     transform="translate(0 230)" />
  <use
     xlink:href="#d"
     transform="translate(0 230)"
     id="use3" />
  <use
     xlink:href="#e"
     transform="translate(0 230)"
     id="use4" />
  <use
     xlink:href="#f"
     transform="translate(0 230)"
     id="use5" />
  <use
     xlink:href="#b"
     id="j"
     x="0"
     y="0"
     transform="translate(0 -230)" />
  <use
     xlink:href="#c"
     transform="translate(0 -230)"
     id="use6" />
  <use
     xlink:href="#g"
     transform="translate(0 -230)"
     id="use7" />
  <use
     xlink:href="#h"
     transform="translate(0 -230)"
     id="use8" />
  <use
     xlink:href="#a"
     transform="translate(230)"
     id="use9" />
  <use
     xlink:href="#b"
     transform="translate(230)"
     id="use10" />
  <use
     xlink:href="#i"
     transform="translate(230)"
     id="use11" />
  <use
     xlink:href="#j"
     transform="translate(230)"
     id="use12" />
  <g
     id="g15"
     inkscape:label="leading-lines"
     style="display:inline">
    <path
       id="k"
       fill="none"
       stroke="#ff7f2a"
       stroke-dasharray="12, 8"
       stroke-dashoffset="0"
       stroke-width="4"
       d="M 0,37 H 400" />
    <use
       xlink:href="#k"
       id="l"
       x="0"
       y="0"
       transform="translate(0,116)" />
    <use
       xlink:href="#l"
       transform="translate(0,115)"
       id="use13" />
    <path
       id="m"
       fill="none"
       stroke="#ff7f2a"
       stroke-dasharray="12, 8"
       stroke-dashoffset="0"
       stroke-width="4"
       d="M 27,0 V 300" />
    <use
       xlink:href="#m"
       id="n"
       x="0"
       y="0"
       transform="translate(115)" />
    <use
       xlink:href="#n"
       transform="translate(115)"
       id="use14" />
    <use
       xlink:href="#m"
       transform="translate(345)"
       id="use15" />
  </g>
</svg>
